<?xml version="1.0" encoding="utf-8" standalone="no"?>
<!DOCTYPE svg PUBLIC "-//W3C//DTD SVG 1.1//EN"
  "http://www.w3.org/Graphics/SVG/1.1/DTD/svg11.dtd">
<!-- Created with matplotlib (https://matplotlib.org/) -->
<svg height="288pt" version="1.1" viewBox="0 0 432 288" width="432pt" xmlns="http://www.w3.org/2000/svg" xmlns:xlink="http://www.w3.org/1999/xlink">
 <defs>
  <style type="text/css">
*{stroke-linecap:butt;stroke-linejoin:round;}
  </style>
 </defs>
 <g id="figure_1">
  <g id="patch_1">
   <path d="M 0 288 
L 432 288 
L 432 0 
L 0 0 
z
" style="fill:#ffffff;"/>
  </g>
  <g id="axes_1">
   <g id="patch_2">
    <path d="M 54 252 
L 388.8 252 
L 388.8 34.56 
L 54 34.56 
z
" style="fill:#ffffff;"/>
   </g>
   <g id="matplotlib.axis_1">
    <g id="xtick_1">
     <g id="line2d_1">
      <path clip-path="url(#pcffd475260)" d="M 69.218182 252 
L 69.218182 34.56 
" style="fill:none;stroke:#999999;stroke-linecap:square;stroke-opacity:0.5;stroke-width:0.8;"/>
     </g>
     <g id="line2d_2">
      <defs>
       <path d="M 0 0 
L 0 3.5 
" id="mde6281bf82" style="stroke:#000000;stroke-width:0.8;"/>
      </defs>
      <g>
       <use style="stroke:#000000;stroke-width:0.8;" x="69.218182" xlink:href="#mde6281bf82" y="252"/>
      </g>
     </g>
     <g id="text_1">
      <!-- Mon -->
      <defs>
       <path d="M 9.8125 72.90625 
L 24.515625 72.90625 
L 43.109375 23.296875 
L 61.8125 72.90625 
L 76.515625 72.90625 
L 76.515625 0 
L 66.890625 0 
L 66.890625 64.015625 
L 48.09375 14.015625 
L 38.1875 14.015625 
L 19.390625 64.015625 
L 19.390625 0 
L 9.8125 0 
z
" id="DejaVuSans-77"/>
       <path d="M 30.609375 48.390625 
Q 23.390625 48.390625 19.1875 42.75 
Q 14.984375 37.109375 14.984375 27.296875 
Q 14.984375 17.484375 19.15625 11.84375 
Q 23.34375 6.203125 30.609375 6.203125 
Q 37.796875 6.203125 41.984375 11.859375 
Q 46.1875 17.53125 46.1875 27.296875 
Q 46.1875 37.015625 41.984375 42.703125 
Q 37.796875 48.390625 30.609375 48.390625 
z
M 30.609375 56 
Q 42.328125 56 49.015625 48.375 
Q 55.71875 40.765625 55.71875 27.296875 
Q 55.71875 13.875 49.015625 6.21875 
Q 42.328125 -1.421875 30.609375 -1.421875 
Q 18.84375 -1.421875 12.171875 6.21875 
Q 5.515625 13.875 5.515625 27.296875 
Q 5.515625 40.765625 12.171875 48.375 
Q 18.84375 56 30.609375 56 
z
" id="DejaVuSans-111"/>
       <path d="M 54.890625 33.015625 
L 54.890625 0 
L 45.90625 0 
L 45.90625 32.71875 
Q 45.90625 40.484375 42.875 44.328125 
Q 39.84375 48.1875 33.796875 48.1875 
Q 26.515625 48.1875 22.3125 43.546875 
Q 18.109375 38.921875 18.109375 30.90625 
L 18.109375 0 
L 9.078125 0 
L 9.078125 54.6875 
L 18.109375 54.6875 
L 18.109375 46.1875 
Q 21.34375 51.125 25.703125 53.5625 
Q 30.078125 56 35.796875 56 
Q 45.21875 56 50.046875 50.171875 
Q 54.890625 44.34375 54.890625 33.015625 
z
" id="DejaVuSans-110"/>
      </defs>
      <g transform="translate(58.675994 266.598437)scale(0.1 -0.1)">
       <use xlink:href="#DejaVuSans-77"/>
       <use x="86.279297" xlink:href="#DejaVuSans-111"/>
       <use x="147.460938" xlink:href="#DejaVuSans-110"/>
      </g>
     </g>
    </g>
    <g id="xtick_2">
     <g id="line2d_3">
      <path clip-path="url(#pcffd475260)" d="M 145.309091 252 
L 145.309091 34.56 
" style="fill:none;stroke:#999999;stroke-linecap:square;stroke-opacity:0.5;stroke-width:0.8;"/>
     </g>
     <g id="line2d_4">
      <g>
       <use style="stroke:#000000;stroke-width:0.8;" x="145.309091" xlink:href="#mde6281bf82" y="252"/>
      </g>
     </g>
     <g id="text_2">
      <!-- Tue -->
      <defs>
       <path d="M -0.296875 72.90625 
L 61.375 72.90625 
L 61.375 64.59375 
L 35.5 64.59375 
L 35.5 0 
L 25.59375 0 
L 25.59375 64.59375 
L -0.296875 64.59375 
z
" id="DejaVuSans-84"/>
       <path d="M 8.5 21.578125 
L 8.5 54.6875 
L 17.484375 54.6875 
L 17.484375 21.921875 
Q 17.484375 14.15625 20.5 10.265625 
Q 23.53125 6.390625 29.59375 6.390625 
Q 36.859375 6.390625 41.078125 11.03125 
Q 45.3125 15.671875 45.3125 23.6875 
L 45.3125 54.6875 
L 54.296875 54.6875 
L 54.296875 0 
L 45.3125 0 
L 45.3125 8.40625 
Q 42.046875 3.421875 37.71875 1 
Q 33.40625 -1.421875 27.6875 -1.421875 
Q 18.265625 -1.421875 13.375 4.4375 
Q 8.5 10.296875 8.5 21.578125 
z
M 31.109375 56 
z
" id="DejaVuSans-117"/>
       <path d="M 56.203125 29.59375 
L 56.203125 25.203125 
L 14.890625 25.203125 
Q 15.484375 15.921875 20.484375 11.0625 
Q 25.484375 6.203125 34.421875 6.203125 
Q 39.59375 6.203125 44.453125 7.46875 
Q 49.3125 8.734375 54.109375 11.28125 
L 54.109375 2.78125 
Q 49.265625 0.734375 44.1875 -0.34375 
Q 39.109375 -1.421875 33.890625 -1.421875 
Q 20.796875 -1.421875 13.15625 6.1875 
Q 5.515625 13.8125 5.515625 26.8125 
Q 5.515625 40.234375 12.765625 48.109375 
Q 20.015625 56 32.328125 56 
Q 43.359375 56 49.78125 48.890625 
Q 56.203125 41.796875 56.203125 29.59375 
z
M 47.21875 32.234375 
Q 47.125 39.59375 43.09375 43.984375 
Q 39.0625 48.390625 32.421875 48.390625 
Q 24.90625 48.390625 20.390625 44.140625 
Q 15.875 39.890625 15.1875 32.171875 
z
" id="DejaVuSans-101"/>
      </defs>
      <g transform="translate(136.021591 266.598437)scale(0.1 -0.1)">
       <use xlink:href="#DejaVuSans-84"/>
       <use x="60.849609" xlink:href="#DejaVuSans-117"/>
       <use x="124.228516" xlink:href="#DejaVuSans-101"/>
      </g>
     </g>
    </g>
    <g id="xtick_3">
     <g id="line2d_5">
      <path clip-path="url(#pcffd475260)" d="M 221.4 252 
L 221.4 34.56 
" style="fill:none;stroke:#999999;stroke-linecap:square;stroke-opacity:0.5;stroke-width:0.8;"/>
     </g>
     <g id="line2d_6">
      <g>
       <use style="stroke:#000000;stroke-width:0.8;" x="221.4" xlink:href="#mde6281bf82" y="252"/>
      </g>
     </g>
     <g id="text_3">
      <!-- Wed -->
      <defs>
       <path d="M 3.328125 72.90625 
L 13.28125 72.90625 
L 28.609375 11.28125 
L 43.890625 72.90625 
L 54.984375 72.90625 
L 70.3125 11.28125 
L 85.59375 72.90625 
L 95.609375 72.90625 
L 77.296875 0 
L 64.890625 0 
L 49.515625 63.28125 
L 33.984375 0 
L 21.578125 0 
z
" id="DejaVuSans-87"/>
       <path d="M 45.40625 46.390625 
L 45.40625 75.984375 
L 54.390625 75.984375 
L 54.390625 0 
L 45.40625 0 
L 45.40625 8.203125 
Q 42.578125 3.328125 38.25 0.953125 
Q 33.9375 -1.421875 27.875 -1.421875 
Q 17.96875 -1.421875 11.734375 6.484375 
Q 5.515625 14.40625 5.515625 27.296875 
Q 5.515625 40.1875 11.734375 48.09375 
Q 17.96875 56 27.875 56 
Q 33.9375 56 38.25 53.625 
Q 42.578125 51.265625 45.40625 46.390625 
z
M 14.796875 27.296875 
Q 14.796875 17.390625 18.875 11.75 
Q 22.953125 6.109375 30.078125 6.109375 
Q 37.203125 6.109375 41.296875 11.75 
Q 45.40625 17.390625 45.40625 27.296875 
Q 45.40625 37.203125 41.296875 42.84375 
Q 37.203125 48.484375 30.078125 48.484375 
Q 22.953125 48.484375 18.875 42.84375 
Q 14.796875 37.203125 14.796875 27.296875 
z
" id="DejaVuSans-100"/>
      </defs>
      <g transform="translate(210.209375 266.598437)scale(0.1 -0.1)">
       <use xlink:href="#DejaVuSans-87"/>
       <use x="98.798828" xlink:href="#DejaVuSans-101"/>
       <use x="160.322266" xlink:href="#DejaVuSans-100"/>
      </g>
     </g>
    </g>
    <g id="xtick_4">
     <g id="line2d_7">
      <path clip-path="url(#pcffd475260)" d="M 297.490909 252 
L 297.490909 34.56 
" style="fill:none;stroke:#999999;stroke-linecap:square;stroke-opacity:0.5;stroke-width:0.8;"/>
     </g>
     <g id="line2d_8">
      <g>
       <use style="stroke:#000000;stroke-width:0.8;" x="297.490909" xlink:href="#mde6281bf82" y="252"/>
      </g>
     </g>
     <g id="text_4">
      <!-- Thu -->
      <defs>
       <path d="M 54.890625 33.015625 
L 54.890625 0 
L 45.90625 0 
L 45.90625 32.71875 
Q 45.90625 40.484375 42.875 44.328125 
Q 39.84375 48.1875 33.796875 48.1875 
Q 26.515625 48.1875 22.3125 43.546875 
Q 18.109375 38.921875 18.109375 30.90625 
L 18.109375 0 
L 9.078125 0 
L 9.078125 75.984375 
L 18.109375 75.984375 
L 18.109375 46.1875 
Q 21.34375 51.125 25.703125 53.5625 
Q 30.078125 56 35.796875 56 
Q 45.21875 56 50.046875 50.171875 
Q 54.890625 44.34375 54.890625 33.015625 
z
" id="DejaVuSans-104"/>
      </defs>
      <g transform="translate(288.099503 266.598437)scale(0.1 -0.1)">
       <use xlink:href="#DejaVuSans-84"/>
       <use x="61.083984" xlink:href="#DejaVuSans-104"/>
       <use x="124.462891" xlink:href="#DejaVuSans-117"/>
      </g>
     </g>
    </g>
    <g id="xtick_5">
     <g id="line2d_9">
      <path clip-path="url(#pcffd475260)" d="M 373.581818 252 
L 373.581818 34.56 
" style="fill:none;stroke:#999999;stroke-linecap:square;stroke-opacity:0.5;stroke-width:0.8;"/>
     </g>
     <g id="line2d_10">
      <g>
       <use style="stroke:#000000;stroke-width:0.8;" x="373.581818" xlink:href="#mde6281bf82" y="252"/>
      </g>
     </g>
     <g id="text_5">
      <!-- Fri -->
      <defs>
       <path d="M 9.8125 72.90625 
L 51.703125 72.90625 
L 51.703125 64.59375 
L 19.671875 64.59375 
L 19.671875 43.109375 
L 48.578125 43.109375 
L 48.578125 34.8125 
L 19.671875 34.8125 
L 19.671875 0 
L 9.8125 0 
z
" id="DejaVuSans-70"/>
       <path d="M 41.109375 46.296875 
Q 39.59375 47.171875 37.8125 47.578125 
Q 36.03125 48 33.890625 48 
Q 26.265625 48 22.1875 43.046875 
Q 18.109375 38.09375 18.109375 28.8125 
L 18.109375 0 
L 9.078125 0 
L 9.078125 54.6875 
L 18.109375 54.6875 
L 18.109375 46.1875 
Q 20.953125 51.171875 25.484375 53.578125 
Q 30.03125 56 36.53125 56 
Q 37.453125 56 38.578125 55.875 
Q 39.703125 55.765625 41.0625 55.515625 
z
" id="DejaVuSans-114"/>
       <path d="M 9.421875 54.6875 
L 18.40625 54.6875 
L 18.40625 0 
L 9.421875 0 
z
M 9.421875 75.984375 
L 18.40625 75.984375 
L 18.40625 64.59375 
L 9.421875 64.59375 
z
" id="DejaVuSans-105"/>
      </defs>
      <g transform="translate(367.266974 266.598437)scale(0.1 -0.1)">
       <use xlink:href="#DejaVuSans-70"/>
       <use x="57.410156" xlink:href="#DejaVuSans-114"/>
       <use x="98.523438" xlink:href="#DejaVuSans-105"/>
      </g>
     </g>
    </g>
    <g id="xtick_6">
     <g id="line2d_11">
      <defs>
       <path d="M 0 0 
L 0 2 
" id="m2913e147e5" style="stroke:#000000;stroke-width:0.6;"/>
      </defs>
      <g>
       <use style="stroke:#000000;stroke-width:0.6;" x="84.436364" xlink:href="#m2913e147e5" y="252"/>
      </g>
     </g>
    </g>
    <g id="xtick_7">
     <g id="line2d_12">
      <g>
       <use style="stroke:#000000;stroke-width:0.6;" x="99.654545" xlink:href="#m2913e147e5" y="252"/>
      </g>
     </g>
    </g>
    <g id="xtick_8">
     <g id="line2d_13">
      <g>
       <use style="stroke:#000000;stroke-width:0.6;" x="114.872727" xlink:href="#m2913e147e5" y="252"/>
      </g>
     </g>
    </g>
    <g id="xtick_9">
     <g id="line2d_14">
      <g>
       <use style="stroke:#000000;stroke-width:0.6;" x="130.090909" xlink:href="#m2913e147e5" y="252"/>
      </g>
     </g>
    </g>
    <g id="xtick_10">
     <g id="line2d_15">
      <g>
       <use style="stroke:#000000;stroke-width:0.6;" x="160.527273" xlink:href="#m2913e147e5" y="252"/>
      </g>
     </g>
    </g>
    <g id="xtick_11">
     <g id="line2d_16">
      <g>
       <use style="stroke:#000000;stroke-width:0.6;" x="175.745455" xlink:href="#m2913e147e5" y="252"/>
      </g>
     </g>
    </g>
    <g id="xtick_12">
     <g id="line2d_17">
      <g>
       <use style="stroke:#000000;stroke-width:0.6;" x="190.963636" xlink:href="#m2913e147e5" y="252"/>
      </g>
     </g>
    </g>
    <g id="xtick_13">
     <g id="line2d_18">
      <g>
       <use style="stroke:#000000;stroke-width:0.6;" x="206.181818" xlink:href="#m2913e147e5" y="252"/>
      </g>
     </g>
    </g>
    <g id="xtick_14">
     <g id="line2d_19">
      <g>
       <use style="stroke:#000000;stroke-width:0.6;" x="236.618182" xlink:href="#m2913e147e5" y="252"/>
      </g>
     </g>
    </g>
    <g id="xtick_15">
     <g id="line2d_20">
      <g>
       <use style="stroke:#000000;stroke-width:0.6;" x="251.836364" xlink:href="#m2913e147e5" y="252"/>
      </g>
     </g>
    </g>
    <g id="xtick_16">
     <g id="line2d_21">
      <g>
       <use style="stroke:#000000;stroke-width:0.6;" x="267.054545" xlink:href="#m2913e147e5" y="252"/>
      </g>
     </g>
    </g>
    <g id="xtick_17">
     <g id="line2d_22">
      <g>
       <use style="stroke:#000000;stroke-width:0.6;" x="282.272727" xlink:href="#m2913e147e5" y="252"/>
      </g>
     </g>
    </g>
    <g id="xtick_18">
     <g id="line2d_23">
      <g>
       <use style="stroke:#000000;stroke-width:0.6;" x="312.709091" xlink:href="#m2913e147e5" y="252"/>
      </g>
     </g>
    </g>
    <g id="xtick_19">
     <g id="line2d_24">
      <g>
       <use style="stroke:#000000;stroke-width:0.6;" x="327.927273" xlink:href="#m2913e147e5" y="252"/>
      </g>
     </g>
    </g>
    <g id="xtick_20">
     <g id="line2d_25">
      <g>
       <use style="stroke:#000000;stroke-width:0.6;" x="343.145455" xlink:href="#m2913e147e5" y="252"/>
      </g>
     </g>
    </g>
    <g id="xtick_21">
     <g id="line2d_26">
      <g>
       <use style="stroke:#000000;stroke-width:0.6;" x="358.363636" xlink:href="#m2913e147e5" y="252"/>
      </g>
     </g>
    </g>
   </g>
   <g id="matplotlib.axis_2">
    <g id="ytick_1">
     <g id="line2d_27">
      <path clip-path="url(#pcffd475260)" d="M 54 220.379526 
L 388.8 220.379526 
" style="fill:none;stroke:#999999;stroke-linecap:square;stroke-opacity:0.5;stroke-width:0.8;"/>
     </g>
     <g id="line2d_28">
      <defs>
       <path d="M 0 0 
L -3.5 0 
" id="m50e0209ac1" style="stroke:#000000;stroke-width:0.8;"/>
      </defs>
      <g>
       <use style="stroke:#000000;stroke-width:0.8;" x="54" xlink:href="#m50e0209ac1" y="220.379526"/>
      </g>
     </g>
     <g id="text_6">
      <!-- 1.02 -->
      <defs>
       <path d="M 12.40625 8.296875 
L 28.515625 8.296875 
L 28.515625 63.921875 
L 10.984375 60.40625 
L 10.984375 69.390625 
L 28.421875 72.90625 
L 38.28125 72.90625 
L 38.28125 8.296875 
L 54.390625 8.296875 
L 54.390625 0 
L 12.40625 0 
z
" id="DejaVuSans-49"/>
       <path d="M 10.6875 12.40625 
L 21 12.40625 
L 21 0 
L 10.6875 0 
z
" id="DejaVuSans-46"/>
       <path d="M 31.78125 66.40625 
Q 24.171875 66.40625 20.328125 58.90625 
Q 16.5 51.421875 16.5 36.375 
Q 16.5 21.390625 20.328125 13.890625 
Q 24.171875 6.390625 31.78125 6.390625 
Q 39.453125 6.390625 43.28125 13.890625 
Q 47.125 21.390625 47.125 36.375 
Q 47.125 51.421875 43.28125 58.90625 
Q 39.453125 66.40625 31.78125 66.40625 
z
M 31.78125 74.21875 
Q 44.046875 74.21875 50.515625 64.515625 
Q 56.984375 54.828125 56.984375 36.375 
Q 56.984375 17.96875 50.515625 8.265625 
Q 44.046875 -1.421875 31.78125 -1.421875 
Q 19.53125 -1.421875 13.0625 8.265625 
Q 6.59375 17.96875 6.59375 36.375 
Q 6.59375 54.828125 13.0625 64.515625 
Q 19.53125 74.21875 31.78125 74.21875 
z
" id="DejaVuSans-48"/>
       <path d="M 19.1875 8.296875 
L 53.609375 8.296875 
L 53.609375 0 
L 7.328125 0 
L 7.328125 8.296875 
Q 12.9375 14.109375 22.625 23.890625 
Q 32.328125 33.6875 34.8125 36.53125 
Q 39.546875 41.84375 41.421875 45.53125 
Q 43.3125 49.21875 43.3125 52.78125 
Q 43.3125 58.59375 39.234375 62.25 
Q 35.15625 65.921875 28.609375 65.921875 
Q 23.96875 65.921875 18.8125 64.3125 
Q 13.671875 62.703125 7.8125 59.421875 
L 7.8125 69.390625 
Q 13.765625 71.78125 18.9375 73 
Q 24.125 74.21875 28.421875 74.21875 
Q 39.75 74.21875 46.484375 68.546875 
Q 53.21875 62.890625 53.21875 53.421875 
Q 53.21875 48.921875 51.53125 44.890625 
Q 49.859375 40.875 45.40625 35.40625 
Q 44.1875 33.984375 37.640625 27.21875 
Q 31.109375 20.453125 19.1875 8.296875 
z
" id="DejaVuSans-50"/>
      </defs>
      <g transform="translate(24.734375 224.178745)scale(0.1 -0.1)">
       <use xlink:href="#DejaVuSans-49"/>
       <use x="63.623047" xlink:href="#DejaVuSans-46"/>
       <use x="95.410156" xlink:href="#DejaVuSans-48"/>
       <use x="159.033203" xlink:href="#DejaVuSans-50"/>
      </g>
     </g>
    </g>
    <g id="ytick_2">
     <g id="line2d_29">
      <path clip-path="url(#pcffd475260)" d="M 54 180.472086 
L 388.8 180.472086 
" style="fill:none;stroke:#999999;stroke-linecap:square;stroke-opacity:0.5;stroke-width:0.8;"/>
     </g>
     <g id="line2d_30">
      <g>
       <use style="stroke:#000000;stroke-width:0.8;" x="54" xlink:href="#m50e0209ac1" y="180.472086"/>
      </g>
     </g>
     <g id="text_7">
      <!-- 1.04 -->
      <defs>
       <path d="M 37.796875 64.3125 
L 12.890625 25.390625 
L 37.796875 25.390625 
z
M 35.203125 72.90625 
L 47.609375 72.90625 
L 47.609375 25.390625 
L 58.015625 25.390625 
L 58.015625 17.1875 
L 47.609375 17.1875 
L 47.609375 0 
L 37.796875 0 
L 37.796875 17.1875 
L 4.890625 17.1875 
L 4.890625 26.703125 
z
" id="DejaVuSans-52"/>
      </defs>
      <g transform="translate(24.734375 184.271305)scale(0.1 -0.1)">
       <use xlink:href="#DejaVuSans-49"/>
       <use x="63.623047" xlink:href="#DejaVuSans-46"/>
       <use x="95.410156" xlink:href="#DejaVuSans-48"/>
       <use x="159.033203" xlink:href="#DejaVuSans-52"/>
      </g>
     </g>
    </g>
    <g id="ytick_3">
     <g id="line2d_31">
      <path clip-path="url(#pcffd475260)" d="M 54 140.564646 
L 388.8 140.564646 
" style="fill:none;stroke:#999999;stroke-linecap:square;stroke-opacity:0.5;stroke-width:0.8;"/>
     </g>
     <g id="line2d_32">
      <g>
       <use style="stroke:#000000;stroke-width:0.8;" x="54" xlink:href="#m50e0209ac1" y="140.564646"/>
      </g>
     </g>
     <g id="text_8">
      <!-- 1.06 -->
      <defs>
       <path d="M 33.015625 40.375 
Q 26.375 40.375 22.484375 35.828125 
Q 18.609375 31.296875 18.609375 23.390625 
Q 18.609375 15.53125 22.484375 10.953125 
Q 26.375 6.390625 33.015625 6.390625 
Q 39.65625 6.390625 43.53125 10.953125 
Q 47.40625 15.53125 47.40625 23.390625 
Q 47.40625 31.296875 43.53125 35.828125 
Q 39.65625 40.375 33.015625 40.375 
z
M 52.59375 71.296875 
L 52.59375 62.3125 
Q 48.875 64.0625 45.09375 64.984375 
Q 41.3125 65.921875 37.59375 65.921875 
Q 27.828125 65.921875 22.671875 59.328125 
Q 17.53125 52.734375 16.796875 39.40625 
Q 19.671875 43.65625 24.015625 45.921875 
Q 28.375 48.1875 33.59375 48.1875 
Q 44.578125 48.1875 50.953125 41.515625 
Q 57.328125 34.859375 57.328125 23.390625 
Q 57.328125 12.15625 50.6875 5.359375 
Q 44.046875 -1.421875 33.015625 -1.421875 
Q 20.359375 -1.421875 13.671875 8.265625 
Q 6.984375 17.96875 6.984375 36.375 
Q 6.984375 53.65625 15.1875 63.9375 
Q 23.390625 74.21875 37.203125 74.21875 
Q 40.921875 74.21875 44.703125 73.484375 
Q 48.484375 72.75 52.59375 71.296875 
z
" id="DejaVuSans-54"/>
      </defs>
      <g transform="translate(24.734375 144.363865)scale(0.1 -0.1)">
       <use xlink:href="#DejaVuSans-49"/>
       <use x="63.623047" xlink:href="#DejaVuSans-46"/>
       <use x="95.410156" xlink:href="#DejaVuSans-48"/>
       <use x="159.033203" xlink:href="#DejaVuSans-54"/>
      </g>
     </g>
    </g>
    <g id="ytick_4">
     <g id="line2d_33">
      <path clip-path="url(#pcffd475260)" d="M 54 100.657207 
L 388.8 100.657207 
" style="fill:none;stroke:#999999;stroke-linecap:square;stroke-opacity:0.5;stroke-width:0.8;"/>
     </g>
     <g id="line2d_34">
      <g>
       <use style="stroke:#000000;stroke-width:0.8;" x="54" xlink:href="#m50e0209ac1" y="100.657207"/>
      </g>
     </g>
     <g id="text_9">
      <!-- 1.08 -->
      <defs>
       <path d="M 31.78125 34.625 
Q 24.75 34.625 20.71875 30.859375 
Q 16.703125 27.09375 16.703125 20.515625 
Q 16.703125 13.921875 20.71875 10.15625 
Q 24.75 6.390625 31.78125 6.390625 
Q 38.8125 6.390625 42.859375 10.171875 
Q 46.921875 13.96875 46.921875 20.515625 
Q 46.921875 27.09375 42.890625 30.859375 
Q 38.875 34.625 31.78125 34.625 
z
M 21.921875 38.8125 
Q 15.578125 40.375 12.03125 44.71875 
Q 8.5 49.078125 8.5 55.328125 
Q 8.5 64.0625 14.71875 69.140625 
Q 20.953125 74.21875 31.78125 74.21875 
Q 42.671875 74.21875 48.875 69.140625 
Q 55.078125 64.0625 55.078125 55.328125 
Q 55.078125 49.078125 51.53125 44.71875 
Q 48 40.375 41.703125 38.8125 
Q 48.828125 37.15625 52.796875 32.3125 
Q 56.78125 27.484375 56.78125 20.515625 
Q 56.78125 9.90625 50.3125 4.234375 
Q 43.84375 -1.421875 31.78125 -1.421875 
Q 19.734375 -1.421875 13.25 4.234375 
Q 6.78125 9.90625 6.78125 20.515625 
Q 6.78125 27.484375 10.78125 32.3125 
Q 14.796875 37.15625 21.921875 38.8125 
z
M 18.3125 54.390625 
Q 18.3125 48.734375 21.84375 45.5625 
Q 25.390625 42.390625 31.78125 42.390625 
Q 38.140625 42.390625 41.71875 45.5625 
Q 45.3125 48.734375 45.3125 54.390625 
Q 45.3125 60.0625 41.71875 63.234375 
Q 38.140625 66.40625 31.78125 66.40625 
Q 25.390625 66.40625 21.84375 63.234375 
Q 18.3125 60.0625 18.3125 54.390625 
z
" id="DejaVuSans-56"/>
      </defs>
      <g transform="translate(24.734375 104.456425)scale(0.1 -0.1)">
       <use xlink:href="#DejaVuSans-49"/>
       <use x="63.623047" xlink:href="#DejaVuSans-46"/>
       <use x="95.410156" xlink:href="#DejaVuSans-48"/>
       <use x="159.033203" xlink:href="#DejaVuSans-56"/>
      </g>
     </g>
    </g>
    <g id="ytick_5">
     <g id="line2d_35">
      <path clip-path="url(#pcffd475260)" d="M 54 60.749767 
L 388.8 60.749767 
" style="fill:none;stroke:#999999;stroke-linecap:square;stroke-opacity:0.5;stroke-width:0.8;"/>
     </g>
     <g id="line2d_36">
      <g>
       <use style="stroke:#000000;stroke-width:0.8;" x="54" xlink:href="#m50e0209ac1" y="60.749767"/>
      </g>
     </g>
     <g id="text_10">
      <!-- 1.10 -->
      <g transform="translate(24.734375 64.548985)scale(0.1 -0.1)">
       <use xlink:href="#DejaVuSans-49"/>
       <use x="63.623047" xlink:href="#DejaVuSans-46"/>
       <use x="95.410156" xlink:href="#DejaVuSans-49"/>
       <use x="159.033203" xlink:href="#DejaVuSans-48"/>
      </g>
     </g>
    </g>
   </g>
   <g id="line2d_37">
    <path clip-path="url(#pcffd475260)" d="M 69.218182 165.858896 
L 145.309091 178.222814 
L 221.4 188.967864 
L 297.490909 198.306014 
L 373.581818 206.421476 
" style="fill:none;stroke:#4682b4;stroke-linecap:square;stroke-width:1.5;"/>
    <defs>
     <path d="M 0 3 
C 0.795609 3 1.55874 2.683901 2.12132 2.12132 
C 2.683901 1.55874 3 0.795609 3 0 
C 3 -0.795609 2.683901 -1.55874 2.12132 -2.12132 
C 1.55874 -2.683901 0.795609 -3 0 -3 
C -0.795609 -3 -1.55874 -2.683901 -2.12132 -2.12132 
C -2.683901 -1.55874 -3 -0.795609 -3 0 
C -3 0.795609 -2.683901 1.55874 -2.12132 2.12132 
C -1.55874 2.683901 -0.795609 3 0 3 
z
" id="m3d08ab1d81" style="stroke:#4682b4;"/>
    </defs>
    <g clip-path="url(#pcffd475260)">
     <use style="fill:#4682b4;stroke:#4682b4;" x="69.218182" xlink:href="#m3d08ab1d81" y="165.858896"/>
     <use style="fill:#4682b4;stroke:#4682b4;" x="145.309091" xlink:href="#m3d08ab1d81" y="178.222814"/>
     <use style="fill:#4682b4;stroke:#4682b4;" x="221.4" xlink:href="#m3d08ab1d81" y="188.967864"/>
     <use style="fill:#4682b4;stroke:#4682b4;" x="297.490909" xlink:href="#m3d08ab1d81" y="198.306014"/>
     <use style="fill:#4682b4;stroke:#4682b4;" x="373.581818" xlink:href="#m3d08ab1d81" y="206.421476"/>
    </g>
   </g>
   <g id="line2d_38">
    <path clip-path="url(#pcffd475260)" d="M 69.218182 134.938362 
L 145.309091 157.856765 
L 221.4 176.584829 
L 297.490909 191.888703 
L 373.581818 204.394458 
" style="fill:none;stroke:#4682b4;stroke-linecap:square;stroke-width:1.5;"/>
    <g clip-path="url(#pcffd475260)">
     <use style="fill:#4682b4;stroke:#4682b4;" x="69.218182" xlink:href="#m3d08ab1d81" y="134.938362"/>
     <use style="fill:#4682b4;stroke:#4682b4;" x="145.309091" xlink:href="#m3d08ab1d81" y="157.856765"/>
     <use style="fill:#4682b4;stroke:#4682b4;" x="221.4" xlink:href="#m3d08ab1d81" y="176.584829"/>
     <use style="fill:#4682b4;stroke:#4682b4;" x="297.490909" xlink:href="#m3d08ab1d81" y="191.888703"/>
     <use style="fill:#4682b4;stroke:#4682b4;" x="373.581818" xlink:href="#m3d08ab1d81" y="204.394458"/>
    </g>
   </g>
   <g id="line2d_39">
    <path clip-path="url(#pcffd475260)" d="M 69.218182 119.611156 
L 145.309091 143.992832 
L 221.4 164.14872 
L 297.490909 180.811227 
L 373.581818 194.585818 
" style="fill:none;stroke:#4682b4;stroke-linecap:square;stroke-width:1.5;"/>
    <g clip-path="url(#pcffd475260)">
     <use style="fill:#4682b4;stroke:#4682b4;" x="69.218182" xlink:href="#m3d08ab1d81" y="119.611156"/>
     <use style="fill:#4682b4;stroke:#4682b4;" x="145.309091" xlink:href="#m3d08ab1d81" y="143.992832"/>
     <use style="fill:#4682b4;stroke:#4682b4;" x="221.4" xlink:href="#m3d08ab1d81" y="164.14872"/>
     <use style="fill:#4682b4;stroke:#4682b4;" x="297.490909" xlink:href="#m3d08ab1d81" y="180.811227"/>
     <use style="fill:#4682b4;stroke:#4682b4;" x="373.581818" xlink:href="#m3d08ab1d81" y="194.585818"/>
    </g>
   </g>
   <g id="line2d_40">
    <path clip-path="url(#pcffd475260)" d="M 69.218182 87.47243 
L 145.309091 112.918333 
L 221.4 134.617479 
L 297.490909 153.121556 
L 373.581818 168.901019 
" style="fill:none;stroke:#4682b4;stroke-linecap:square;stroke-width:1.5;"/>
    <g clip-path="url(#pcffd475260)">
     <use style="fill:#4682b4;stroke:#4682b4;" x="69.218182" xlink:href="#m3d08ab1d81" y="87.47243"/>
     <use style="fill:#4682b4;stroke:#4682b4;" x="145.309091" xlink:href="#m3d08ab1d81" y="112.918333"/>
     <use style="fill:#4682b4;stroke:#4682b4;" x="221.4" xlink:href="#m3d08ab1d81" y="134.617479"/>
     <use style="fill:#4682b4;stroke:#4682b4;" x="297.490909" xlink:href="#m3d08ab1d81" y="153.121556"/>
     <use style="fill:#4682b4;stroke:#4682b4;" x="373.581818" xlink:href="#m3d08ab1d81" y="168.901019"/>
    </g>
   </g>
   <g id="line2d_41">
    <path clip-path="url(#pcffd475260)" d="M 69.218182 111.45358 
L 145.309091 161.50897 
L 221.4 194.729817 
L 297.490909 216.777885 
L 373.581818 231.410785 
" style="fill:none;stroke:#4682b4;stroke-linecap:square;stroke-width:1.5;"/>
    <g clip-path="url(#pcffd475260)">
     <use style="fill:#4682b4;stroke:#4682b4;" x="69.218182" xlink:href="#m3d08ab1d81" y="111.45358"/>
     <use style="fill:#4682b4;stroke:#4682b4;" x="145.309091" xlink:href="#m3d08ab1d81" y="161.50897"/>
     <use style="fill:#4682b4;stroke:#4682b4;" x="221.4" xlink:href="#m3d08ab1d81" y="194.729817"/>
     <use style="fill:#4682b4;stroke:#4682b4;" x="297.490909" xlink:href="#m3d08ab1d81" y="216.777885"/>
     <use style="fill:#4682b4;stroke:#4682b4;" x="373.581818" xlink:href="#m3d08ab1d81" y="231.410785"/>
    </g>
   </g>
   <g id="line2d_42">
    <path clip-path="url(#pcffd475260)" d="M 69.218182 118.881289 
L 145.309091 150.163645 
L 221.4 174.525587 
L 297.490909 193.498078 
L 373.581818 208.273395 
" style="fill:none;stroke:#4682b4;stroke-linecap:square;stroke-width:1.5;"/>
    <g clip-path="url(#pcffd475260)">
     <use style="fill:#4682b4;stroke:#4682b4;" x="69.218182" xlink:href="#m3d08ab1d81" y="118.881289"/>
     <use style="fill:#4682b4;stroke:#4682b4;" x="145.309091" xlink:href="#m3d08ab1d81" y="150.163645"/>
     <use style="fill:#4682b4;stroke:#4682b4;" x="221.4" xlink:href="#m3d08ab1d81" y="174.525587"/>
     <use style="fill:#4682b4;stroke:#4682b4;" x="297.490909" xlink:href="#m3d08ab1d81" y="193.498078"/>
     <use style="fill:#4682b4;stroke:#4682b4;" x="373.581818" xlink:href="#m3d08ab1d81" y="208.273395"/>
    </g>
   </g>
   <g id="line2d_43">
    <path clip-path="url(#pcffd475260)" d="M 69.218182 121.293836 
L 145.309091 150.207079 
L 221.4 173.105812 
L 297.490909 191.241169 
L 373.581818 205.604022 
" style="fill:none;stroke:#4682b4;stroke-linecap:square;stroke-width:1.5;"/>
    <g clip-path="url(#pcffd475260)">
     <use style="fill:#4682b4;stroke:#4682b4;" x="69.218182" xlink:href="#m3d08ab1d81" y="121.293836"/>
     <use style="fill:#4682b4;stroke:#4682b4;" x="145.309091" xlink:href="#m3d08ab1d81" y="150.207079"/>
     <use style="fill:#4682b4;stroke:#4682b4;" x="221.4" xlink:href="#m3d08ab1d81" y="173.105812"/>
     <use style="fill:#4682b4;stroke:#4682b4;" x="297.490909" xlink:href="#m3d08ab1d81" y="191.241169"/>
     <use style="fill:#4682b4;stroke:#4682b4;" x="373.581818" xlink:href="#m3d08ab1d81" y="205.604022"/>
    </g>
   </g>
   <g id="line2d_44">
    <path clip-path="url(#pcffd475260)" d="M 69.218182 83.043872 
L 145.309091 107.916257 
L 221.4 129.29832 
L 297.490909 147.679855 
L 373.581818 163.481923 
" style="fill:none;stroke:#4682b4;stroke-linecap:square;stroke-width:1.5;"/>
    <g clip-path="url(#pcffd475260)">
     <use style="fill:#4682b4;stroke:#4682b4;" x="69.218182" xlink:href="#m3d08ab1d81" y="83.043872"/>
     <use style="fill:#4682b4;stroke:#4682b4;" x="145.309091" xlink:href="#m3d08ab1d81" y="107.916257"/>
     <use style="fill:#4682b4;stroke:#4682b4;" x="221.4" xlink:href="#m3d08ab1d81" y="129.29832"/>
     <use style="fill:#4682b4;stroke:#4682b4;" x="297.490909" xlink:href="#m3d08ab1d81" y="147.679855"/>
     <use style="fill:#4682b4;stroke:#4682b4;" x="373.581818" xlink:href="#m3d08ab1d81" y="163.481923"/>
    </g>
   </g>
   <g id="line2d_45">
    <path clip-path="url(#pcffd475260)" d="M 69.218182 151.303612 
L 145.309091 156.809434 
L 221.4 162.037103 
L 297.490909 167.000671 
L 373.581818 171.71348 
" style="fill:none;stroke:#4682b4;stroke-linecap:square;stroke-width:1.5;"/>
    <g clip-path="url(#pcffd475260)">
     <use style="fill:#4682b4;stroke:#4682b4;" x="69.218182" xlink:href="#m3d08ab1d81" y="151.303612"/>
     <use style="fill:#4682b4;stroke:#4682b4;" x="145.309091" xlink:href="#m3d08ab1d81" y="156.809434"/>
     <use style="fill:#4682b4;stroke:#4682b4;" x="221.4" xlink:href="#m3d08ab1d81" y="162.037103"/>
     <use style="fill:#4682b4;stroke:#4682b4;" x="297.490909" xlink:href="#m3d08ab1d81" y="167.000671"/>
     <use style="fill:#4682b4;stroke:#4682b4;" x="373.581818" xlink:href="#m3d08ab1d81" y="171.71348"/>
    </g>
   </g>
   <g id="line2d_46">
    <path clip-path="url(#pcffd475260)" d="M 69.218182 44.443636 
L 145.309091 144.022686 
L 221.4 197.661066 
L 297.490909 226.553447 
L 373.581818 242.116364 
" style="fill:none;stroke:#4682b4;stroke-linecap:square;stroke-width:1.5;"/>
    <g clip-path="url(#pcffd475260)">
     <use style="fill:#4682b4;stroke:#4682b4;" x="69.218182" xlink:href="#m3d08ab1d81" y="44.443636"/>
     <use style="fill:#4682b4;stroke:#4682b4;" x="145.309091" xlink:href="#m3d08ab1d81" y="144.022686"/>
     <use style="fill:#4682b4;stroke:#4682b4;" x="221.4" xlink:href="#m3d08ab1d81" y="197.661066"/>
     <use style="fill:#4682b4;stroke:#4682b4;" x="297.490909" xlink:href="#m3d08ab1d81" y="226.553447"/>
     <use style="fill:#4682b4;stroke:#4682b4;" x="373.581818" xlink:href="#m3d08ab1d81" y="242.116364"/>
    </g>
   </g>
   <g id="line2d_47">
    <path clip-path="url(#pcffd475260)" d="M 69.218182 83.7124 
L 145.309091 141.433964 
L 221.4 180.286565 
L 297.490909 206.438396 
L 373.581818 224.041292 
" style="fill:none;stroke:#4682b4;stroke-linecap:square;stroke-width:1.5;"/>
    <g clip-path="url(#pcffd475260)">
     <use style="fill:#4682b4;stroke:#4682b4;" x="69.218182" xlink:href="#m3d08ab1d81" y="83.7124"/>
     <use style="fill:#4682b4;stroke:#4682b4;" x="145.309091" xlink:href="#m3d08ab1d81" y="141.433964"/>
     <use style="fill:#4682b4;stroke:#4682b4;" x="221.4" xlink:href="#m3d08ab1d81" y="180.286565"/>
     <use style="fill:#4682b4;stroke:#4682b4;" x="297.490909" xlink:href="#m3d08ab1d81" y="206.438396"/>
     <use style="fill:#4682b4;stroke:#4682b4;" x="373.581818" xlink:href="#m3d08ab1d81" y="224.041292"/>
    </g>
   </g>
   <g id="line2d_48">
    <path clip-path="url(#pcffd475260)" d="M 69.218182 111.195088 
L 145.309091 120.168334 
L 221.4 128.601515 
L 297.490909 136.527136 
L 373.581818 143.975747 
" style="fill:none;stroke:#4682b4;stroke-linecap:square;stroke-width:1.5;"/>
    <g clip-path="url(#pcffd475260)">
     <use style="fill:#4682b4;stroke:#4682b4;" x="69.218182" xlink:href="#m3d08ab1d81" y="111.195088"/>
     <use style="fill:#4682b4;stroke:#4682b4;" x="145.309091" xlink:href="#m3d08ab1d81" y="120.168334"/>
     <use style="fill:#4682b4;stroke:#4682b4;" x="221.4" xlink:href="#m3d08ab1d81" y="128.601515"/>
     <use style="fill:#4682b4;stroke:#4682b4;" x="297.490909" xlink:href="#m3d08ab1d81" y="136.527136"/>
     <use style="fill:#4682b4;stroke:#4682b4;" x="373.581818" xlink:href="#m3d08ab1d81" y="143.975747"/>
    </g>
   </g>
   <g id="line2d_49">
    <path clip-path="url(#pcffd475260)" d="M 69.218182 119.26044 
L 145.309091 151.173149 
L 221.4 175.864372 
L 297.490909 194.968251 
L 373.581818 209.749138 
" style="fill:none;stroke:#4682b4;stroke-linecap:square;stroke-width:1.5;"/>
    <g clip-path="url(#pcffd475260)">
     <use style="fill:#4682b4;stroke:#4682b4;" x="69.218182" xlink:href="#m3d08ab1d81" y="119.26044"/>
     <use style="fill:#4682b4;stroke:#4682b4;" x="145.309091" xlink:href="#m3d08ab1d81" y="151.173149"/>
     <use style="fill:#4682b4;stroke:#4682b4;" x="221.4" xlink:href="#m3d08ab1d81" y="175.864372"/>
     <use style="fill:#4682b4;stroke:#4682b4;" x="297.490909" xlink:href="#m3d08ab1d81" y="194.968251"/>
     <use style="fill:#4682b4;stroke:#4682b4;" x="373.581818" xlink:href="#m3d08ab1d81" y="209.749138"/>
    </g>
   </g>
   <g id="line2d_50">
    <path clip-path="url(#pcffd475260)" d="M 69.218182 136.001904 
L 145.309091 144.869968 
L 221.4 153.105272 
L 297.490909 160.752966 
L 373.581818 167.854977 
" style="fill:none;stroke:#4682b4;stroke-linecap:square;stroke-width:1.5;"/>
    <g clip-path="url(#pcffd475260)">
     <use style="fill:#4682b4;stroke:#4682b4;" x="69.218182" xlink:href="#m3d08ab1d81" y="136.001904"/>
     <use style="fill:#4682b4;stroke:#4682b4;" x="145.309091" xlink:href="#m3d08ab1d81" y="144.869968"/>
     <use style="fill:#4682b4;stroke:#4682b4;" x="221.4" xlink:href="#m3d08ab1d81" y="153.105272"/>
     <use style="fill:#4682b4;stroke:#4682b4;" x="297.490909" xlink:href="#m3d08ab1d81" y="160.752966"/>
     <use style="fill:#4682b4;stroke:#4682b4;" x="373.581818" xlink:href="#m3d08ab1d81" y="167.854977"/>
    </g>
   </g>
   <g id="line2d_51">
    <path clip-path="url(#pcffd475260)" d="M 69.218182 160.850752 
L 145.309091 163.990351 
L 221.4 167.03082 
L 297.490909 169.975289 
L 373.581818 172.82679 
" style="fill:none;stroke:#4682b4;stroke-linecap:square;stroke-width:1.5;"/>
    <g clip-path="url(#pcffd475260)">
     <use style="fill:#4682b4;stroke:#4682b4;" x="69.218182" xlink:href="#m3d08ab1d81" y="160.850752"/>
     <use style="fill:#4682b4;stroke:#4682b4;" x="145.309091" xlink:href="#m3d08ab1d81" y="163.990351"/>
     <use style="fill:#4682b4;stroke:#4682b4;" x="221.4" xlink:href="#m3d08ab1d81" y="167.03082"/>
     <use style="fill:#4682b4;stroke:#4682b4;" x="297.490909" xlink:href="#m3d08ab1d81" y="169.975289"/>
     <use style="fill:#4682b4;stroke:#4682b4;" x="373.581818" xlink:href="#m3d08ab1d81" y="172.82679"/>
    </g>
   </g>
   <g id="line2d_52">
    <path clip-path="url(#pcffd475260)" d="M 69.218182 141.62242 
L 145.309091 173.878384 
L 221.4 197.366379 
L 297.490909 214.469754 
L 373.581818 226.924008 
" style="fill:none;stroke:#4682b4;stroke-linecap:square;stroke-width:1.5;"/>
    <g clip-path="url(#pcffd475260)">
     <use style="fill:#4682b4;stroke:#4682b4;" x="69.218182" xlink:href="#m3d08ab1d81" y="141.62242"/>
     <use style="fill:#4682b4;stroke:#4682b4;" x="145.309091" xlink:href="#m3d08ab1d81" y="173.878384"/>
     <use style="fill:#4682b4;stroke:#4682b4;" x="221.4" xlink:href="#m3d08ab1d81" y="197.366379"/>
     <use style="fill:#4682b4;stroke:#4682b4;" x="297.490909" xlink:href="#m3d08ab1d81" y="214.469754"/>
     <use style="fill:#4682b4;stroke:#4682b4;" x="373.581818" xlink:href="#m3d08ab1d81" y="226.924008"/>
    </g>
   </g>
   <g id="line2d_53">
    <path clip-path="url(#pcffd475260)" d="M 69.218182 155.252472 
L 145.309091 172.012954 
L 221.4 186.098946 
L 297.490909 197.937219 
L 373.581818 207.886444 
" style="fill:none;stroke:#4682b4;stroke-linecap:square;stroke-width:1.5;"/>
    <g clip-path="url(#pcffd475260)">
     <use style="fill:#4682b4;stroke:#4682b4;" x="69.218182" xlink:href="#m3d08ab1d81" y="155.252472"/>
     <use style="fill:#4682b4;stroke:#4682b4;" x="145.309091" xlink:href="#m3d08ab1d81" y="172.012954"/>
     <use style="fill:#4682b4;stroke:#4682b4;" x="221.4" xlink:href="#m3d08ab1d81" y="186.098946"/>
     <use style="fill:#4682b4;stroke:#4682b4;" x="297.490909" xlink:href="#m3d08ab1d81" y="197.937219"/>
     <use style="fill:#4682b4;stroke:#4682b4;" x="373.581818" xlink:href="#m3d08ab1d81" y="207.886444"/>
    </g>
   </g>
   <g id="line2d_54">
    <path clip-path="url(#pcffd475260)" d="M 69.218182 56.748258 
L 145.309091 145.598199 
L 221.4 195.66283 
L 297.490909 223.872947 
L 373.581818 239.768613 
" style="fill:none;stroke:#4682b4;stroke-linecap:square;stroke-width:1.5;"/>
    <g clip-path="url(#pcffd475260)">
     <use style="fill:#4682b4;stroke:#4682b4;" x="69.218182" xlink:href="#m3d08ab1d81" y="56.748258"/>
     <use style="fill:#4682b4;stroke:#4682b4;" x="145.309091" xlink:href="#m3d08ab1d81" y="145.598199"/>
     <use style="fill:#4682b4;stroke:#4682b4;" x="221.4" xlink:href="#m3d08ab1d81" y="195.66283"/>
     <use style="fill:#4682b4;stroke:#4682b4;" x="297.490909" xlink:href="#m3d08ab1d81" y="223.872947"/>
     <use style="fill:#4682b4;stroke:#4682b4;" x="373.581818" xlink:href="#m3d08ab1d81" y="239.768613"/>
    </g>
   </g>
   <g id="line2d_55">
    <path clip-path="url(#pcffd475260)" d="M 69.218182 148.533147 
L 145.309091 152.358842 
L 221.4 156.053571 
L 297.490909 159.621818 
L 373.581818 163.067912 
" style="fill:none;stroke:#4682b4;stroke-linecap:square;stroke-width:1.5;"/>
    <g clip-path="url(#pcffd475260)">
     <use style="fill:#4682b4;stroke:#4682b4;" x="69.218182" xlink:href="#m3d08ab1d81" y="148.533147"/>
     <use style="fill:#4682b4;stroke:#4682b4;" x="145.309091" xlink:href="#m3d08ab1d81" y="152.358842"/>
     <use style="fill:#4682b4;stroke:#4682b4;" x="221.4" xlink:href="#m3d08ab1d81" y="156.053571"/>
     <use style="fill:#4682b4;stroke:#4682b4;" x="297.490909" xlink:href="#m3d08ab1d81" y="159.621818"/>
     <use style="fill:#4682b4;stroke:#4682b4;" x="373.581818" xlink:href="#m3d08ab1d81" y="163.067912"/>
    </g>
   </g>
   <g id="line2d_56">
    <path clip-path="url(#pcffd475260)" d="M 69.218182 155.740471 
L 145.309091 157.128835 
L 221.4 158.498761 
L 297.490909 159.850495 
L 373.581818 161.184277 
" style="fill:none;stroke:#4682b4;stroke-linecap:square;stroke-width:1.5;"/>
    <g clip-path="url(#pcffd475260)">
     <use style="fill:#4682b4;stroke:#4682b4;" x="69.218182" xlink:href="#m3d08ab1d81" y="155.740471"/>
     <use style="fill:#4682b4;stroke:#4682b4;" x="145.309091" xlink:href="#m3d08ab1d81" y="157.128835"/>
     <use style="fill:#4682b4;stroke:#4682b4;" x="221.4" xlink:href="#m3d08ab1d81" y="158.498761"/>
     <use style="fill:#4682b4;stroke:#4682b4;" x="297.490909" xlink:href="#m3d08ab1d81" y="159.850495"/>
     <use style="fill:#4682b4;stroke:#4682b4;" x="373.581818" xlink:href="#m3d08ab1d81" y="161.184277"/>
    </g>
   </g>
   <g id="patch_3">
    <path d="M 54 252 
L 54 34.56 
" style="fill:none;stroke:#000000;stroke-linecap:square;stroke-linejoin:miter;stroke-width:0.8;"/>
   </g>
   <g id="patch_4">
    <path d="M 388.8 252 
L 388.8 34.56 
" style="fill:none;stroke:#000000;stroke-linecap:square;stroke-linejoin:miter;stroke-width:0.8;"/>
   </g>
   <g id="patch_5">
    <path d="M 54 252 
L 388.8 252 
" style="fill:none;stroke:#000000;stroke-linecap:square;stroke-linejoin:miter;stroke-width:0.8;"/>
   </g>
   <g id="patch_6">
    <path d="M 54 34.56 
L 388.8 34.56 
" style="fill:none;stroke:#000000;stroke-linecap:square;stroke-linejoin:miter;stroke-width:0.8;"/>
   </g>
   <g id="text_11">
    <!-- Plausible progress of risk ratios over the week -->
    <defs>
     <path d="M 19.671875 64.796875 
L 19.671875 37.40625 
L 32.078125 37.40625 
Q 38.96875 37.40625 42.71875 40.96875 
Q 46.484375 44.53125 46.484375 51.125 
Q 46.484375 57.671875 42.71875 61.234375 
Q 38.96875 64.796875 32.078125 64.796875 
z
M 9.8125 72.90625 
L 32.078125 72.90625 
Q 44.34375 72.90625 50.609375 67.359375 
Q 56.890625 61.8125 56.890625 51.125 
Q 56.890625 40.328125 50.609375 34.8125 
Q 44.34375 29.296875 32.078125 29.296875 
L 19.671875 29.296875 
L 19.671875 0 
L 9.8125 0 
z
" id="DejaVuSans-80"/>
     <path d="M 9.421875 75.984375 
L 18.40625 75.984375 
L 18.40625 0 
L 9.421875 0 
z
" id="DejaVuSans-108"/>
     <path d="M 34.28125 27.484375 
Q 23.390625 27.484375 19.1875 25 
Q 14.984375 22.515625 14.984375 16.5 
Q 14.984375 11.71875 18.140625 8.90625 
Q 21.296875 6.109375 26.703125 6.109375 
Q 34.1875 6.109375 38.703125 11.40625 
Q 43.21875 16.703125 43.21875 25.484375 
L 43.21875 27.484375 
z
M 52.203125 31.203125 
L 52.203125 0 
L 43.21875 0 
L 43.21875 8.296875 
Q 40.140625 3.328125 35.546875 0.953125 
Q 30.953125 -1.421875 24.3125 -1.421875 
Q 15.921875 -1.421875 10.953125 3.296875 
Q 6 8.015625 6 15.921875 
Q 6 25.140625 12.171875 29.828125 
Q 18.359375 34.515625 30.609375 34.515625 
L 43.21875 34.515625 
L 43.21875 35.40625 
Q 43.21875 41.609375 39.140625 45 
Q 35.0625 48.390625 27.6875 48.390625 
Q 23 48.390625 18.546875 47.265625 
Q 14.109375 46.140625 10.015625 43.890625 
L 10.015625 52.203125 
Q 14.9375 54.109375 19.578125 55.046875 
Q 24.21875 56 28.609375 56 
Q 40.484375 56 46.34375 49.84375 
Q 52.203125 43.703125 52.203125 31.203125 
z
" id="DejaVuSans-97"/>
     <path d="M 44.28125 53.078125 
L 44.28125 44.578125 
Q 40.484375 46.53125 36.375 47.5 
Q 32.28125 48.484375 27.875 48.484375 
Q 21.1875 48.484375 17.84375 46.4375 
Q 14.5 44.390625 14.5 40.28125 
Q 14.5 37.15625 16.890625 35.375 
Q 19.28125 33.59375 26.515625 31.984375 
L 29.59375 31.296875 
Q 39.15625 29.25 43.1875 25.515625 
Q 47.21875 21.78125 47.21875 15.09375 
Q 47.21875 7.46875 41.1875 3.015625 
Q 35.15625 -1.421875 24.609375 -1.421875 
Q 20.21875 -1.421875 15.453125 -0.5625 
Q 10.6875 0.296875 5.421875 2 
L 5.421875 11.28125 
Q 10.40625 8.6875 15.234375 7.390625 
Q 20.0625 6.109375 24.8125 6.109375 
Q 31.15625 6.109375 34.5625 8.28125 
Q 37.984375 10.453125 37.984375 14.40625 
Q 37.984375 18.0625 35.515625 20.015625 
Q 33.0625 21.96875 24.703125 23.78125 
L 21.578125 24.515625 
Q 13.234375 26.265625 9.515625 29.90625 
Q 5.8125 33.546875 5.8125 39.890625 
Q 5.8125 47.609375 11.28125 51.796875 
Q 16.75 56 26.8125 56 
Q 31.78125 56 36.171875 55.265625 
Q 40.578125 54.546875 44.28125 53.078125 
z
" id="DejaVuSans-115"/>
     <path d="M 48.6875 27.296875 
Q 48.6875 37.203125 44.609375 42.84375 
Q 40.53125 48.484375 33.40625 48.484375 
Q 26.265625 48.484375 22.1875 42.84375 
Q 18.109375 37.203125 18.109375 27.296875 
Q 18.109375 17.390625 22.1875 11.75 
Q 26.265625 6.109375 33.40625 6.109375 
Q 40.53125 6.109375 44.609375 11.75 
Q 48.6875 17.390625 48.6875 27.296875 
z
M 18.109375 46.390625 
Q 20.953125 51.265625 25.265625 53.625 
Q 29.59375 56 35.59375 56 
Q 45.5625 56 51.78125 48.09375 
Q 58.015625 40.1875 58.015625 27.296875 
Q 58.015625 14.40625 51.78125 6.484375 
Q 45.5625 -1.421875 35.59375 -1.421875 
Q 29.59375 -1.421875 25.265625 0.953125 
Q 20.953125 3.328125 18.109375 8.203125 
L 18.109375 0 
L 9.078125 0 
L 9.078125 75.984375 
L 18.109375 75.984375 
z
" id="DejaVuSans-98"/>
     <path id="DejaVuSans-32"/>
     <path d="M 18.109375 8.203125 
L 18.109375 -20.796875 
L 9.078125 -20.796875 
L 9.078125 54.6875 
L 18.109375 54.6875 
L 18.109375 46.390625 
Q 20.953125 51.265625 25.265625 53.625 
Q 29.59375 56 35.59375 56 
Q 45.5625 56 51.78125 48.09375 
Q 58.015625 40.1875 58.015625 27.296875 
Q 58.015625 14.40625 51.78125 6.484375 
Q 45.5625 -1.421875 35.59375 -1.421875 
Q 29.59375 -1.421875 25.265625 0.953125 
Q 20.953125 3.328125 18.109375 8.203125 
z
M 48.6875 27.296875 
Q 48.6875 37.203125 44.609375 42.84375 
Q 40.53125 48.484375 33.40625 48.484375 
Q 26.265625 48.484375 22.1875 42.84375 
Q 18.109375 37.203125 18.109375 27.296875 
Q 18.109375 17.390625 22.1875 11.75 
Q 26.265625 6.109375 33.40625 6.109375 
Q 40.53125 6.109375 44.609375 11.75 
Q 48.6875 17.390625 48.6875 27.296875 
z
" id="DejaVuSans-112"/>
     <path d="M 45.40625 27.984375 
Q 45.40625 37.75 41.375 43.109375 
Q 37.359375 48.484375 30.078125 48.484375 
Q 22.859375 48.484375 18.828125 43.109375 
Q 14.796875 37.75 14.796875 27.984375 
Q 14.796875 18.265625 18.828125 12.890625 
Q 22.859375 7.515625 30.078125 7.515625 
Q 37.359375 7.515625 41.375 12.890625 
Q 45.40625 18.265625 45.40625 27.984375 
z
M 54.390625 6.78125 
Q 54.390625 -7.171875 48.1875 -13.984375 
Q 42 -20.796875 29.203125 -20.796875 
Q 24.46875 -20.796875 20.265625 -20.09375 
Q 16.0625 -19.390625 12.109375 -17.921875 
L 12.109375 -9.1875 
Q 16.0625 -11.328125 19.921875 -12.34375 
Q 23.78125 -13.375 27.78125 -13.375 
Q 36.625 -13.375 41.015625 -8.765625 
Q 45.40625 -4.15625 45.40625 5.171875 
L 45.40625 9.625 
Q 42.625 4.78125 38.28125 2.390625 
Q 33.9375 0 27.875 0 
Q 17.828125 0 11.671875 7.65625 
Q 5.515625 15.328125 5.515625 27.984375 
Q 5.515625 40.671875 11.671875 48.328125 
Q 17.828125 56 27.875 56 
Q 33.9375 56 38.28125 53.609375 
Q 42.625 51.21875 45.40625 46.390625 
L 45.40625 54.6875 
L 54.390625 54.6875 
z
" id="DejaVuSans-103"/>
     <path d="M 37.109375 75.984375 
L 37.109375 68.5 
L 28.515625 68.5 
Q 23.6875 68.5 21.796875 66.546875 
Q 19.921875 64.59375 19.921875 59.515625 
L 19.921875 54.6875 
L 34.71875 54.6875 
L 34.71875 47.703125 
L 19.921875 47.703125 
L 19.921875 0 
L 10.890625 0 
L 10.890625 47.703125 
L 2.296875 47.703125 
L 2.296875 54.6875 
L 10.890625 54.6875 
L 10.890625 58.5 
Q 10.890625 67.625 15.140625 71.796875 
Q 19.390625 75.984375 28.609375 75.984375 
z
" id="DejaVuSans-102"/>
     <path d="M 9.078125 75.984375 
L 18.109375 75.984375 
L 18.109375 31.109375 
L 44.921875 54.6875 
L 56.390625 54.6875 
L 27.390625 29.109375 
L 57.625 0 
L 45.90625 0 
L 18.109375 26.703125 
L 18.109375 0 
L 9.078125 0 
z
" id="DejaVuSans-107"/>
     <path d="M 18.3125 70.21875 
L 18.3125 54.6875 
L 36.8125 54.6875 
L 36.8125 47.703125 
L 18.3125 47.703125 
L 18.3125 18.015625 
Q 18.3125 11.328125 20.140625 9.421875 
Q 21.96875 7.515625 27.59375 7.515625 
L 36.8125 7.515625 
L 36.8125 0 
L 27.59375 0 
Q 17.1875 0 13.234375 3.875 
Q 9.28125 7.765625 9.28125 18.015625 
L 9.28125 47.703125 
L 2.6875 47.703125 
L 2.6875 54.6875 
L 9.28125 54.6875 
L 9.28125 70.21875 
z
" id="DejaVuSans-116"/>
     <path d="M 2.984375 54.6875 
L 12.5 54.6875 
L 29.59375 8.796875 
L 46.6875 54.6875 
L 56.203125 54.6875 
L 35.6875 0 
L 23.484375 0 
z
" id="DejaVuSans-118"/>
     <path d="M 4.203125 54.6875 
L 13.1875 54.6875 
L 24.421875 12.015625 
L 35.59375 54.6875 
L 46.1875 54.6875 
L 57.421875 12.015625 
L 68.609375 54.6875 
L 77.59375 54.6875 
L 63.28125 0 
L 52.6875 0 
L 40.921875 44.828125 
L 29.109375 0 
L 18.5 0 
z
" id="DejaVuSans-119"/>
    </defs>
    <g transform="translate(82.696875 15.122625)scale(0.12 -0.12)">
     <use xlink:href="#DejaVuSans-80"/>
     <use x="60.302734" xlink:href="#DejaVuSans-108"/>
     <use x="88.085938" xlink:href="#DejaVuSans-97"/>
     <use x="149.365234" xlink:href="#DejaVuSans-117"/>
     <use x="212.744141" xlink:href="#DejaVuSans-115"/>
     <use x="264.84375" xlink:href="#DejaVuSans-105"/>
     <use x="292.626953" xlink:href="#DejaVuSans-98"/>
     <use x="356.103516" xlink:href="#DejaVuSans-108"/>
     <use x="383.886719" xlink:href="#DejaVuSans-101"/>
     <use x="445.410156" xlink:href="#DejaVuSans-32"/>
     <use x="477.197266" xlink:href="#DejaVuSans-112"/>
     <use x="540.673828" xlink:href="#DejaVuSans-114"/>
     <use x="581.755859" xlink:href="#DejaVuSans-111"/>
     <use x="642.9375" xlink:href="#DejaVuSans-103"/>
     <use x="706.414062" xlink:href="#DejaVuSans-114"/>
     <use x="747.496094" xlink:href="#DejaVuSans-101"/>
     <use x="809.019531" xlink:href="#DejaVuSans-115"/>
     <use x="861.119141" xlink:href="#DejaVuSans-115"/>
     <use x="913.21875" xlink:href="#DejaVuSans-32"/>
     <use x="945.005859" xlink:href="#DejaVuSans-111"/>
     <use x="1006.1875" xlink:href="#DejaVuSans-102"/>
     <use x="1041.392578" xlink:href="#DejaVuSans-32"/>
     <use x="1073.179688" xlink:href="#DejaVuSans-114"/>
     <use x="1114.292969" xlink:href="#DejaVuSans-105"/>
     <use x="1142.076172" xlink:href="#DejaVuSans-115"/>
     <use x="1194.175781" xlink:href="#DejaVuSans-107"/>
     <use x="1252.085938" xlink:href="#DejaVuSans-32"/>
     <use x="1283.873047" xlink:href="#DejaVuSans-114"/>
     <use x="1324.986328" xlink:href="#DejaVuSans-97"/>
     <use x="1386.265625" xlink:href="#DejaVuSans-116"/>
     <use x="1425.474609" xlink:href="#DejaVuSans-105"/>
     <use x="1453.257812" xlink:href="#DejaVuSans-111"/>
     <use x="1514.439453" xlink:href="#DejaVuSans-115"/>
     <use x="1566.539062" xlink:href="#DejaVuSans-32"/>
     <use x="1598.326172" xlink:href="#DejaVuSans-111"/>
     <use x="1659.507812" xlink:href="#DejaVuSans-118"/>
     <use x="1718.6875" xlink:href="#DejaVuSans-101"/>
     <use x="1780.210938" xlink:href="#DejaVuSans-114"/>
     <use x="1821.324219" xlink:href="#DejaVuSans-32"/>
     <use x="1853.111328" xlink:href="#DejaVuSans-116"/>
     <use x="1892.320312" xlink:href="#DejaVuSans-104"/>
     <use x="1955.699219" xlink:href="#DejaVuSans-101"/>
     <use x="2017.222656" xlink:href="#DejaVuSans-32"/>
     <use x="2049.009766" xlink:href="#DejaVuSans-119"/>
     <use x="2130.796875" xlink:href="#DejaVuSans-101"/>
     <use x="2192.320312" xlink:href="#DejaVuSans-101"/>
     <use x="2253.84375" xlink:href="#DejaVuSans-107"/>
    </g>
    <!-- under the exponential weekday model -->
    <defs>
     <path d="M 54.890625 54.6875 
L 35.109375 28.078125 
L 55.90625 0 
L 45.3125 0 
L 29.390625 21.484375 
L 13.484375 0 
L 2.875 0 
L 24.125 28.609375 
L 4.6875 54.6875 
L 15.28125 54.6875 
L 29.78125 35.203125 
L 44.28125 54.6875 
z
" id="DejaVuSans-120"/>
     <path d="M 32.171875 -5.078125 
Q 28.375 -14.84375 24.75 -17.8125 
Q 21.140625 -20.796875 15.09375 -20.796875 
L 7.90625 -20.796875 
L 7.90625 -13.28125 
L 13.1875 -13.28125 
Q 16.890625 -13.28125 18.9375 -11.515625 
Q 21 -9.765625 23.484375 -3.21875 
L 25.09375 0.875 
L 2.984375 54.6875 
L 12.5 54.6875 
L 29.59375 11.921875 
L 46.6875 54.6875 
L 56.203125 54.6875 
z
" id="DejaVuSans-121"/>
     <path d="M 52 44.1875 
Q 55.375 50.25 60.0625 53.125 
Q 64.75 56 71.09375 56 
Q 79.640625 56 84.28125 50.015625 
Q 88.921875 44.046875 88.921875 33.015625 
L 88.921875 0 
L 79.890625 0 
L 79.890625 32.71875 
Q 79.890625 40.578125 77.09375 44.375 
Q 74.3125 48.1875 68.609375 48.1875 
Q 61.625 48.1875 57.5625 43.546875 
Q 53.515625 38.921875 53.515625 30.90625 
L 53.515625 0 
L 44.484375 0 
L 44.484375 32.71875 
Q 44.484375 40.625 41.703125 44.40625 
Q 38.921875 48.1875 33.109375 48.1875 
Q 26.21875 48.1875 22.15625 43.53125 
Q 18.109375 38.875 18.109375 30.90625 
L 18.109375 0 
L 9.078125 0 
L 9.078125 54.6875 
L 18.109375 54.6875 
L 18.109375 46.1875 
Q 21.1875 51.21875 25.484375 53.609375 
Q 29.78125 56 35.6875 56 
Q 41.65625 56 45.828125 52.96875 
Q 50 49.953125 52 44.1875 
z
" id="DejaVuSans-109"/>
    </defs>
    <g transform="translate(105.485625 28.56)scale(0.12 -0.12)">
     <use xlink:href="#DejaVuSans-117"/>
     <use x="63.378906" xlink:href="#DejaVuSans-110"/>
     <use x="126.757812" xlink:href="#DejaVuSans-100"/>
     <use x="190.234375" xlink:href="#DejaVuSans-101"/>
     <use x="251.757812" xlink:href="#DejaVuSans-114"/>
     <use x="292.871094" xlink:href="#DejaVuSans-32"/>
     <use x="324.658203" xlink:href="#DejaVuSans-116"/>
     <use x="363.867188" xlink:href="#DejaVuSans-104"/>
     <use x="427.246094" xlink:href="#DejaVuSans-101"/>
     <use x="488.769531" xlink:href="#DejaVuSans-32"/>
     <use x="520.556641" xlink:href="#DejaVuSans-101"/>
     <use x="582.064453" xlink:href="#DejaVuSans-120"/>
     <use x="641.244141" xlink:href="#DejaVuSans-112"/>
     <use x="704.720703" xlink:href="#DejaVuSans-111"/>
     <use x="765.902344" xlink:href="#DejaVuSans-110"/>
     <use x="829.28125" xlink:href="#DejaVuSans-101"/>
     <use x="890.804688" xlink:href="#DejaVuSans-110"/>
     <use x="954.183594" xlink:href="#DejaVuSans-116"/>
     <use x="993.392578" xlink:href="#DejaVuSans-105"/>
     <use x="1021.175781" xlink:href="#DejaVuSans-97"/>
     <use x="1082.455078" xlink:href="#DejaVuSans-108"/>
     <use x="1110.238281" xlink:href="#DejaVuSans-32"/>
     <use x="1142.025391" xlink:href="#DejaVuSans-119"/>
     <use x="1223.8125" xlink:href="#DejaVuSans-101"/>
     <use x="1285.335938" xlink:href="#DejaVuSans-101"/>
     <use x="1346.859375" xlink:href="#DejaVuSans-107"/>
     <use x="1404.769531" xlink:href="#DejaVuSans-100"/>
     <use x="1468.246094" xlink:href="#DejaVuSans-97"/>
     <use x="1529.525391" xlink:href="#DejaVuSans-121"/>
     <use x="1588.705078" xlink:href="#DejaVuSans-32"/>
     <use x="1620.492188" xlink:href="#DejaVuSans-109"/>
     <use x="1717.904297" xlink:href="#DejaVuSans-111"/>
     <use x="1779.085938" xlink:href="#DejaVuSans-100"/>
     <use x="1842.5625" xlink:href="#DejaVuSans-101"/>
     <use x="1904.085938" xlink:href="#DejaVuSans-108"/>
    </g>
   </g>
  </g>
 </g>
 <defs>
  <clipPath id="pcffd475260">
   <rect height="217.44" width="334.8" x="54" y="34.56"/>
  </clipPath>
 </defs>
</svg>
