<?xml version="1.0" encoding="utf-8" standalone="no"?>
<!DOCTYPE svg PUBLIC "-//W3C//DTD SVG 1.1//EN"
  "http://www.w3.org/Graphics/SVG/1.1/DTD/svg11.dtd">
<!-- Created with matplotlib (https://matplotlib.org/) -->
<svg height="288pt" version="1.1" viewBox="0 0 432 288" width="432pt" xmlns="http://www.w3.org/2000/svg" xmlns:xlink="http://www.w3.org/1999/xlink">
 <defs>
  <style type="text/css">
*{stroke-linecap:butt;stroke-linejoin:round;}
  </style>
 </defs>
 <g id="figure_1">
  <g id="patch_1">
   <path d="M 0 288 
L 432 288 
L 432 0 
L 0 0 
z
" style="fill:#ffffff;"/>
  </g>
  <g id="axes_1">
   <g id="patch_2">
    <path d="M 54 252 
L 388.8 252 
L 388.8 34.56 
L 54 34.56 
z
" style="fill:#ffffff;"/>
   </g>
   <g id="patch_3">
    <path clip-path="url(#p2b5b9d5234)" d="M -57.6 252 
L -53.240625 252 
L -53.240625 252 
L -57.6 252 
z
" style="fill:#1f77b4;"/>
   </g>
   <g id="patch_4">
    <path clip-path="url(#p2b5b9d5234)" d="M -53.240625 252 
L -48.88125 252 
L -48.88125 252 
L -53.240625 252 
z
" style="fill:#1f77b4;"/>
   </g>
   <g id="patch_5">
    <path clip-path="url(#p2b5b9d5234)" d="M -48.88125 252 
L -44.521875 252 
L -44.521875 252 
L -48.88125 252 
z
" style="fill:#1f77b4;"/>
   </g>
   <g id="patch_6">
    <path clip-path="url(#p2b5b9d5234)" d="M -44.521875 252 
L -40.1625 252 
L -40.1625 252 
L -44.521875 252 
z
" style="fill:#1f77b4;"/>
   </g>
   <g id="patch_7">
    <path clip-path="url(#p2b5b9d5234)" d="M -40.1625 252 
L -35.803125 252 
L -35.803125 252 
L -40.1625 252 
z
" style="fill:#1f77b4;"/>
   </g>
   <g id="patch_8">
    <path clip-path="url(#p2b5b9d5234)" d="M -35.803125 252 
L -31.44375 252 
L -31.44375 252 
L -35.803125 252 
z
" style="fill:#1f77b4;"/>
   </g>
   <g id="patch_9">
    <path clip-path="url(#p2b5b9d5234)" d="M -31.44375 252 
L -27.084375 252 
L -27.084375 252 
L -31.44375 252 
z
" style="fill:#1f77b4;"/>
   </g>
   <g id="patch_10">
    <path clip-path="url(#p2b5b9d5234)" d="M -27.084375 252 
L -22.725 252 
L -22.725 252 
L -27.084375 252 
z
" style="fill:#1f77b4;"/>
   </g>
   <g id="patch_11">
    <path clip-path="url(#p2b5b9d5234)" d="M -22.725 252 
L -18.365625 252 
L -18.365625 252 
L -22.725 252 
z
" style="fill:#1f77b4;"/>
   </g>
   <g id="patch_12">
    <path clip-path="url(#p2b5b9d5234)" d="M -18.365625 252 
L -14.00625 252 
L -14.00625 252 
L -18.365625 252 
z
" style="fill:#1f77b4;"/>
   </g>
   <g id="patch_13">
    <path clip-path="url(#p2b5b9d5234)" d="M -14.00625 252 
L -9.646875 252 
L -9.646875 252 
L -14.00625 252 
z
" style="fill:#1f77b4;"/>
   </g>
   <g id="patch_14">
    <path clip-path="url(#p2b5b9d5234)" d="M -9.646875 252 
L -5.2875 252 
L -5.2875 252 
L -9.646875 252 
z
" style="fill:#1f77b4;"/>
   </g>
   <g id="patch_15">
    <path clip-path="url(#p2b5b9d5234)" d="M -5.2875 252 
L -0.928125 252 
L -0.928125 252 
L -5.2875 252 
z
" style="fill:#1f77b4;"/>
   </g>
   <g id="patch_16">
    <path clip-path="url(#p2b5b9d5234)" d="M -0.928125 252 
L 3.43125 252 
L 3.43125 252 
L -0.928125 252 
z
" style="fill:#1f77b4;"/>
   </g>
   <g id="patch_17">
    <path clip-path="url(#p2b5b9d5234)" d="M 3.43125 252 
L 7.790625 252 
L 7.790625 252 
L 3.43125 252 
z
" style="fill:#1f77b4;"/>
   </g>
   <g id="patch_18">
    <path clip-path="url(#p2b5b9d5234)" d="M 7.790625 252 
L 12.15 252 
L 12.15 252 
L 7.790625 252 
z
" style="fill:#1f77b4;"/>
   </g>
   <g id="patch_19">
    <path clip-path="url(#p2b5b9d5234)" d="M 12.15 252 
L 16.509375 252 
L 16.509375 252 
L 12.15 252 
z
" style="fill:#1f77b4;"/>
   </g>
   <g id="patch_20">
    <path clip-path="url(#p2b5b9d5234)" d="M 16.509375 252 
L 20.86875 252 
L 20.86875 252 
L 16.509375 252 
z
" style="fill:#1f77b4;"/>
   </g>
   <g id="patch_21">
    <path clip-path="url(#p2b5b9d5234)" d="M 20.86875 252 
L 25.228125 252 
L 25.228125 252 
L 20.86875 252 
z
" style="fill:#1f77b4;"/>
   </g>
   <g id="patch_22">
    <path clip-path="url(#p2b5b9d5234)" d="M 25.228125 252 
L 29.5875 252 
L 29.5875 252 
L 25.228125 252 
z
" style="fill:#1f77b4;"/>
   </g>
   <g id="patch_23">
    <path clip-path="url(#p2b5b9d5234)" d="M 29.5875 252 
L 33.946875 252 
L 33.946875 252 
L 29.5875 252 
z
" style="fill:#1f77b4;"/>
   </g>
   <g id="patch_24">
    <path clip-path="url(#p2b5b9d5234)" d="M 33.946875 252 
L 38.30625 252 
L 38.30625 252 
L 33.946875 252 
z
" style="fill:#1f77b4;"/>
   </g>
   <g id="patch_25">
    <path clip-path="url(#p2b5b9d5234)" d="M 38.30625 252 
L 42.665625 252 
L 42.665625 252 
L 38.30625 252 
z
" style="fill:#1f77b4;"/>
   </g>
   <g id="patch_26">
    <path clip-path="url(#p2b5b9d5234)" d="M 42.665625 252 
L 47.025 252 
L 47.025 252 
L 42.665625 252 
z
" style="fill:#1f77b4;"/>
   </g>
   <g id="patch_27">
    <path clip-path="url(#p2b5b9d5234)" d="M 47.025 252 
L 51.384375 252 
L 51.384375 252 
L 47.025 252 
z
" style="fill:#1f77b4;"/>
   </g>
   <g id="patch_28">
    <path clip-path="url(#p2b5b9d5234)" d="M 51.384375 252 
L 55.74375 252 
L 55.74375 252 
L 51.384375 252 
z
" style="fill:#1f77b4;"/>
   </g>
   <g id="patch_29">
    <path clip-path="url(#p2b5b9d5234)" d="M 55.74375 252 
L 60.103125 252 
L 60.103125 252 
L 55.74375 252 
z
" style="fill:#1f77b4;"/>
   </g>
   <g id="patch_30">
    <path clip-path="url(#p2b5b9d5234)" d="M 60.103125 252 
L 64.4625 252 
L 64.4625 252 
L 60.103125 252 
z
" style="fill:#1f77b4;"/>
   </g>
   <g id="patch_31">
    <path clip-path="url(#p2b5b9d5234)" d="M 64.4625 252 
L 68.821875 252 
L 68.821875 252 
L 64.4625 252 
z
" style="fill:#1f77b4;"/>
   </g>
   <g id="patch_32">
    <path clip-path="url(#p2b5b9d5234)" d="M 68.821875 252 
L 73.18125 252 
L 73.18125 252 
L 68.821875 252 
z
" style="fill:#1f77b4;"/>
   </g>
   <g id="patch_33">
    <path clip-path="url(#p2b5b9d5234)" d="M 73.18125 252 
L 77.540625 252 
L 77.540625 252 
L 73.18125 252 
z
" style="fill:#1f77b4;"/>
   </g>
   <g id="patch_34">
    <path clip-path="url(#p2b5b9d5234)" d="M 77.540625 252 
L 81.9 252 
L 81.9 252 
L 77.540625 252 
z
" style="fill:#1f77b4;"/>
   </g>
   <g id="patch_35">
    <path clip-path="url(#p2b5b9d5234)" d="M 81.9 252 
L 86.259375 252 
L 86.259375 252 
L 81.9 252 
z
" style="fill:#1f77b4;"/>
   </g>
   <g id="patch_36">
    <path clip-path="url(#p2b5b9d5234)" d="M 86.259375 252 
L 90.61875 252 
L 90.61875 252 
L 86.259375 252 
z
" style="fill:#1f77b4;"/>
   </g>
   <g id="patch_37">
    <path clip-path="url(#p2b5b9d5234)" d="M 90.61875 252 
L 94.978125 252 
L 94.978125 252 
L 90.61875 252 
z
" style="fill:#1f77b4;"/>
   </g>
   <g id="patch_38">
    <path clip-path="url(#p2b5b9d5234)" d="M 94.978125 252 
L 99.3375 252 
L 99.3375 252 
L 94.978125 252 
z
" style="fill:#1f77b4;"/>
   </g>
   <g id="patch_39">
    <path clip-path="url(#p2b5b9d5234)" d="M 99.3375 252 
L 103.696875 252 
L 103.696875 252 
L 99.3375 252 
z
" style="fill:#1f77b4;"/>
   </g>
   <g id="patch_40">
    <path clip-path="url(#p2b5b9d5234)" d="M 103.696875 252 
L 108.05625 252 
L 108.05625 252 
L 103.696875 252 
z
" style="fill:#1f77b4;"/>
   </g>
   <g id="patch_41">
    <path clip-path="url(#p2b5b9d5234)" d="M 108.05625 252 
L 112.415625 252 
L 112.415625 252 
L 108.05625 252 
z
" style="fill:#1f77b4;"/>
   </g>
   <g id="patch_42">
    <path clip-path="url(#p2b5b9d5234)" d="M 112.415625 252 
L 116.775 252 
L 116.775 252 
L 112.415625 252 
z
" style="fill:#1f77b4;"/>
   </g>
   <g id="patch_43">
    <path clip-path="url(#p2b5b9d5234)" d="M 116.775 252 
L 121.134375 252 
L 121.134375 252 
L 116.775 252 
z
" style="fill:#1f77b4;"/>
   </g>
   <g id="patch_44">
    <path clip-path="url(#p2b5b9d5234)" d="M 121.134375 252 
L 125.49375 252 
L 125.49375 252 
L 121.134375 252 
z
" style="fill:#1f77b4;"/>
   </g>
   <g id="patch_45">
    <path clip-path="url(#p2b5b9d5234)" d="M 125.49375 252 
L 129.853125 252 
L 129.853125 252 
L 125.49375 252 
z
" style="fill:#1f77b4;"/>
   </g>
   <g id="patch_46">
    <path clip-path="url(#p2b5b9d5234)" d="M 129.853125 252 
L 134.2125 252 
L 134.2125 252 
L 129.853125 252 
z
" style="fill:#1f77b4;"/>
   </g>
   <g id="patch_47">
    <path clip-path="url(#p2b5b9d5234)" d="M 134.2125 252 
L 138.571875 252 
L 138.571875 252 
L 134.2125 252 
z
" style="fill:#1f77b4;"/>
   </g>
   <g id="patch_48">
    <path clip-path="url(#p2b5b9d5234)" d="M 138.571875 252 
L 142.93125 252 
L 142.93125 252 
L 138.571875 252 
z
" style="fill:#1f77b4;"/>
   </g>
   <g id="patch_49">
    <path clip-path="url(#p2b5b9d5234)" d="M 142.93125 252 
L 147.290625 252 
L 147.290625 252 
L 142.93125 252 
z
" style="fill:#1f77b4;"/>
   </g>
   <g id="patch_50">
    <path clip-path="url(#p2b5b9d5234)" d="M 147.290625 252 
L 151.65 252 
L 151.65 252 
L 147.290625 252 
z
" style="fill:#1f77b4;"/>
   </g>
   <g id="patch_51">
    <path clip-path="url(#p2b5b9d5234)" d="M 151.65 252 
L 156.009375 252 
L 156.009375 252 
L 151.65 252 
z
" style="fill:#1f77b4;"/>
   </g>
   <g id="patch_52">
    <path clip-path="url(#p2b5b9d5234)" d="M 156.009375 252 
L 160.36875 252 
L 160.36875 252 
L 156.009375 252 
z
" style="fill:#1f77b4;"/>
   </g>
   <g id="patch_53">
    <path clip-path="url(#p2b5b9d5234)" d="M 160.36875 252 
L 164.728125 252 
L 164.728125 252 
L 160.36875 252 
z
" style="fill:#1f77b4;"/>
   </g>
   <g id="patch_54">
    <path clip-path="url(#p2b5b9d5234)" d="M 164.728125 252 
L 169.0875 252 
L 169.0875 252 
L 164.728125 252 
z
" style="fill:#1f77b4;"/>
   </g>
   <g id="patch_55">
    <path clip-path="url(#p2b5b9d5234)" d="M 169.0875 252 
L 173.446875 252 
L 173.446875 252 
L 169.0875 252 
z
" style="fill:#1f77b4;"/>
   </g>
   <g id="patch_56">
    <path clip-path="url(#p2b5b9d5234)" d="M 173.446875 252 
L 177.80625 252 
L 177.80625 252 
L 173.446875 252 
z
" style="fill:#1f77b4;"/>
   </g>
   <g id="patch_57">
    <path clip-path="url(#p2b5b9d5234)" d="M 177.80625 252 
L 182.165625 252 
L 182.165625 251.979515 
L 177.80625 251.979515 
z
" style="fill:#1f77b4;"/>
   </g>
   <g id="patch_58">
    <path clip-path="url(#p2b5b9d5234)" d="M 182.165625 252 
L 186.525 252 
L 186.525 251.959029 
L 182.165625 251.959029 
z
" style="fill:#1f77b4;"/>
   </g>
   <g id="patch_59">
    <path clip-path="url(#p2b5b9d5234)" d="M 186.525 252 
L 190.884375 252 
L 190.884375 251.856602 
L 186.525 251.856602 
z
" style="fill:#1f77b4;"/>
   </g>
   <g id="patch_60">
    <path clip-path="url(#p2b5b9d5234)" d="M 190.884375 252 
L 195.24375 252 
L 195.24375 251.385437 
L 190.884375 251.385437 
z
" style="fill:#1f77b4;"/>
   </g>
   <g id="patch_61">
    <path clip-path="url(#p2b5b9d5234)" d="M 195.24375 252 
L 199.603125 252 
L 199.603125 251.180583 
L 195.24375 251.180583 
z
" style="fill:#1f77b4;"/>
   </g>
   <g id="patch_62">
    <path clip-path="url(#p2b5b9d5234)" d="M 199.603125 252 
L 203.9625 252 
L 203.9625 250.033399 
L 199.603125 250.033399 
z
" style="fill:#1f77b4;"/>
   </g>
   <g id="patch_63">
    <path clip-path="url(#p2b5b9d5234)" d="M 203.9625 252 
L 208.321875 252 
L 208.321875 247.063011 
L 203.9625 247.063011 
z
" style="fill:#1f77b4;"/>
   </g>
   <g id="patch_64">
    <path clip-path="url(#p2b5b9d5234)" d="M 208.321875 252 
L 212.68125 252 
L 212.68125 242.330877 
L 208.321875 242.330877 
z
" style="fill:#1f77b4;"/>
   </g>
   <g id="patch_65">
    <path clip-path="url(#p2b5b9d5234)" d="M 212.68125 252 
L 217.040625 252 
L 217.040625 234.83321 
L 212.68125 234.83321 
z
" style="fill:#1f77b4;"/>
   </g>
   <g id="patch_66">
    <path clip-path="url(#p2b5b9d5234)" d="M 217.040625 252 
L 221.4 252 
L 221.4 221.886419 
L 217.040625 221.886419 
z
" style="fill:#1f77b4;"/>
   </g>
   <g id="patch_67">
    <path clip-path="url(#p2b5b9d5234)" d="M 221.4 252 
L 225.759375 252 
L 225.759375 201.769727 
L 221.4 201.769727 
z
" style="fill:#1f77b4;"/>
   </g>
   <g id="patch_68">
    <path clip-path="url(#p2b5b9d5234)" d="M 225.759375 252 
L 230.11875 252 
L 230.11875 180.219055 
L 225.759375 180.219055 
z
" style="fill:#1f77b4;"/>
   </g>
   <g id="patch_69">
    <path clip-path="url(#p2b5b9d5234)" d="M 230.11875 252 
L 234.478125 252 
L 234.478125 151.477997 
L 230.11875 151.477997 
z
" style="fill:#1f77b4;"/>
   </g>
   <g id="patch_70">
    <path clip-path="url(#p2b5b9d5234)" d="M 234.478125 252 
L 238.8375 252 
L 238.8375 118.639854 
L 234.478125 118.639854 
z
" style="fill:#1f77b4;"/>
   </g>
   <g id="patch_71">
    <path clip-path="url(#p2b5b9d5234)" d="M 238.8375 252 
L 243.196875 252 
L 243.196875 89.489088 
L 238.8375 89.489088 
z
" style="fill:#1f77b4;"/>
   </g>
   <g id="patch_72">
    <path clip-path="url(#p2b5b9d5234)" d="M 243.196875 252 
L 247.55625 252 
L 247.55625 62.591719 
L 243.196875 62.591719 
z
" style="fill:#1f77b4;"/>
   </g>
   <g id="patch_73">
    <path clip-path="url(#p2b5b9d5234)" d="M 247.55625 252 
L 251.915625 252 
L 251.915625 48.845996 
L 247.55625 48.845996 
z
" style="fill:#1f77b4;"/>
   </g>
   <g id="patch_74">
    <path clip-path="url(#p2b5b9d5234)" d="M 251.915625 252 
L 256.275 252 
L 256.275 46.838423 
L 251.915625 46.838423 
z
" style="fill:#1f77b4;"/>
   </g>
   <g id="patch_75">
    <path clip-path="url(#p2b5b9d5234)" d="M 256.275 252 
L 260.634375 252 
L 260.634375 57.470361 
L 256.275 57.470361 
z
" style="fill:#1f77b4;"/>
   </g>
   <g id="patch_76">
    <path clip-path="url(#p2b5b9d5234)" d="M 260.634375 252 
L 264.99375 252 
L 264.99375 79.205402 
L 260.634375 79.205402 
z
" style="fill:#1f77b4;"/>
   </g>
   <g id="patch_77">
    <path clip-path="url(#p2b5b9d5234)" d="M 264.99375 252 
L 269.353125 252 
L 269.353125 106.77879 
L 264.99375 106.77879 
z
" style="fill:#1f77b4;"/>
   </g>
   <g id="patch_78">
    <path clip-path="url(#p2b5b9d5234)" d="M 269.353125 252 
L 273.7125 252 
L 273.7125 135.683731 
L 269.353125 135.683731 
z
" style="fill:#1f77b4;"/>
   </g>
   <g id="patch_79">
    <path clip-path="url(#p2b5b9d5234)" d="M 273.7125 252 
L 278.071875 252 
L 278.071875 165.264691 
L 273.7125 165.264691 
z
" style="fill:#1f77b4;"/>
   </g>
   <g id="patch_80">
    <path clip-path="url(#p2b5b9d5234)" d="M 278.071875 252 
L 282.43125 252 
L 282.43125 192.940507 
L 278.071875 192.940507 
z
" style="fill:#1f77b4;"/>
   </g>
   <g id="patch_81">
    <path clip-path="url(#p2b5b9d5234)" d="M 282.43125 252 
L 286.790625 252 
L 286.790625 214.08147 
L 282.43125 214.08147 
z
" style="fill:#1f77b4;"/>
   </g>
   <g id="patch_82">
    <path clip-path="url(#p2b5b9d5234)" d="M 286.790625 252 
L 291.15 252 
L 291.15 227.745251 
L 286.790625 227.745251 
z
" style="fill:#1f77b4;"/>
   </g>
   <g id="patch_83">
    <path clip-path="url(#p2b5b9d5234)" d="M 291.15 252 
L 295.509375 252 
L 295.509375 238.274762 
L 291.15 238.274762 
z
" style="fill:#1f77b4;"/>
   </g>
   <g id="patch_84">
    <path clip-path="url(#p2b5b9d5234)" d="M 295.509375 252 
L 299.86875 252 
L 299.86875 243.293692 
L 295.509375 243.293692 
z
" style="fill:#1f77b4;"/>
   </g>
   <g id="patch_85">
    <path clip-path="url(#p2b5b9d5234)" d="M 299.86875 252 
L 304.228125 252 
L 304.228125 247.861943 
L 299.86875 247.861943 
z
" style="fill:#1f77b4;"/>
   </g>
   <g id="patch_86">
    <path clip-path="url(#p2b5b9d5234)" d="M 304.228125 252 
L 308.5875 252 
L 308.5875 250.033399 
L 304.228125 250.033399 
z
" style="fill:#1f77b4;"/>
   </g>
   <g id="patch_87">
    <path clip-path="url(#p2b5b9d5234)" d="M 308.5875 252 
L 312.946875 252 
L 312.946875 251.139612 
L 308.5875 251.139612 
z
" style="fill:#1f77b4;"/>
   </g>
   <g id="patch_88">
    <path clip-path="url(#p2b5b9d5234)" d="M 312.946875 252 
L 317.30625 252 
L 317.30625 251.569806 
L 312.946875 251.569806 
z
" style="fill:#1f77b4;"/>
   </g>
   <g id="patch_89">
    <path clip-path="url(#p2b5b9d5234)" d="M 317.30625 252 
L 321.665625 252 
L 321.665625 251.836117 
L 317.30625 251.836117 
z
" style="fill:#1f77b4;"/>
   </g>
   <g id="patch_90">
    <path clip-path="url(#p2b5b9d5234)" d="M 321.665625 252 
L 326.025 252 
L 326.025 251.979515 
L 321.665625 251.979515 
z
" style="fill:#1f77b4;"/>
   </g>
   <g id="patch_91">
    <path clip-path="url(#p2b5b9d5234)" d="M 326.025 252 
L 330.384375 252 
L 330.384375 251.959029 
L 326.025 251.959029 
z
" style="fill:#1f77b4;"/>
   </g>
   <g id="patch_92">
    <path clip-path="url(#p2b5b9d5234)" d="M 330.384375 252 
L 334.74375 252 
L 334.74375 251.979515 
L 330.384375 251.979515 
z
" style="fill:#1f77b4;"/>
   </g>
   <g id="patch_93">
    <path clip-path="url(#p2b5b9d5234)" d="M 334.74375 252 
L 339.103125 252 
L 339.103125 251.979515 
L 334.74375 251.979515 
z
" style="fill:#1f77b4;"/>
   </g>
   <g id="patch_94">
    <path clip-path="url(#p2b5b9d5234)" d="M 339.103125 252 
L 343.4625 252 
L 343.4625 252 
L 339.103125 252 
z
" style="fill:#1f77b4;"/>
   </g>
   <g id="patch_95">
    <path clip-path="url(#p2b5b9d5234)" d="M 343.4625 252 
L 347.821875 252 
L 347.821875 252 
L 343.4625 252 
z
" style="fill:#1f77b4;"/>
   </g>
   <g id="patch_96">
    <path clip-path="url(#p2b5b9d5234)" d="M 347.821875 252 
L 352.18125 252 
L 352.18125 252 
L 347.821875 252 
z
" style="fill:#1f77b4;"/>
   </g>
   <g id="patch_97">
    <path clip-path="url(#p2b5b9d5234)" d="M 352.18125 252 
L 356.540625 252 
L 356.540625 252 
L 352.18125 252 
z
" style="fill:#1f77b4;"/>
   </g>
   <g id="patch_98">
    <path clip-path="url(#p2b5b9d5234)" d="M 356.540625 252 
L 360.9 252 
L 360.9 252 
L 356.540625 252 
z
" style="fill:#1f77b4;"/>
   </g>
   <g id="patch_99">
    <path clip-path="url(#p2b5b9d5234)" d="M 360.9 252 
L 365.259375 252 
L 365.259375 252 
L 360.9 252 
z
" style="fill:#1f77b4;"/>
   </g>
   <g id="patch_100">
    <path clip-path="url(#p2b5b9d5234)" d="M 365.259375 252 
L 369.61875 252 
L 369.61875 252 
L 365.259375 252 
z
" style="fill:#1f77b4;"/>
   </g>
   <g id="patch_101">
    <path clip-path="url(#p2b5b9d5234)" d="M 369.61875 252 
L 373.978125 252 
L 373.978125 252 
L 369.61875 252 
z
" style="fill:#1f77b4;"/>
   </g>
   <g id="patch_102">
    <path clip-path="url(#p2b5b9d5234)" d="M 373.978125 252 
L 378.3375 252 
L 378.3375 252 
L 373.978125 252 
z
" style="fill:#1f77b4;"/>
   </g>
   <g id="patch_103">
    <path clip-path="url(#p2b5b9d5234)" d="M 378.3375 252 
L 382.696875 252 
L 382.696875 252 
L 378.3375 252 
z
" style="fill:#1f77b4;"/>
   </g>
   <g id="patch_104">
    <path clip-path="url(#p2b5b9d5234)" d="M 382.696875 252 
L 387.05625 252 
L 387.05625 252 
L 382.696875 252 
z
" style="fill:#1f77b4;"/>
   </g>
   <g id="patch_105">
    <path clip-path="url(#p2b5b9d5234)" d="M 387.05625 252 
L 391.415625 252 
L 391.415625 252 
L 387.05625 252 
z
" style="fill:#1f77b4;"/>
   </g>
   <g id="patch_106">
    <path clip-path="url(#p2b5b9d5234)" d="M 391.415625 252 
L 395.775 252 
L 395.775 252 
L 391.415625 252 
z
" style="fill:#1f77b4;"/>
   </g>
   <g id="patch_107">
    <path clip-path="url(#p2b5b9d5234)" d="M 395.775 252 
L 400.134375 252 
L 400.134375 252 
L 395.775 252 
z
" style="fill:#1f77b4;"/>
   </g>
   <g id="patch_108">
    <path clip-path="url(#p2b5b9d5234)" d="M 400.134375 252 
L 404.49375 252 
L 404.49375 252 
L 400.134375 252 
z
" style="fill:#1f77b4;"/>
   </g>
   <g id="patch_109">
    <path clip-path="url(#p2b5b9d5234)" d="M 404.49375 252 
L 408.853125 252 
L 408.853125 252 
L 404.49375 252 
z
" style="fill:#1f77b4;"/>
   </g>
   <g id="patch_110">
    <path clip-path="url(#p2b5b9d5234)" d="M 408.853125 252 
L 413.2125 252 
L 413.2125 252 
L 408.853125 252 
z
" style="fill:#1f77b4;"/>
   </g>
   <g id="patch_111">
    <path clip-path="url(#p2b5b9d5234)" d="M 413.2125 252 
L 417.571875 252 
L 417.571875 252 
L 413.2125 252 
z
" style="fill:#1f77b4;"/>
   </g>
   <g id="patch_112">
    <path clip-path="url(#p2b5b9d5234)" d="M 417.571875 252 
L 421.93125 252 
L 421.93125 252 
L 417.571875 252 
z
" style="fill:#1f77b4;"/>
   </g>
   <g id="patch_113">
    <path clip-path="url(#p2b5b9d5234)" d="M 421.93125 252 
L 426.290625 252 
L 426.290625 252 
L 421.93125 252 
z
" style="fill:#1f77b4;"/>
   </g>
   <g id="patch_114">
    <path clip-path="url(#p2b5b9d5234)" d="M 426.290625 252 
L 430.65 252 
L 430.65 252 
L 426.290625 252 
z
" style="fill:#1f77b4;"/>
   </g>
   <g id="patch_115">
    <path clip-path="url(#p2b5b9d5234)" d="M 430.65 252 
L 435.009375 252 
L 435.009375 252 
L 430.65 252 
z
" style="fill:#1f77b4;"/>
   </g>
   <g id="patch_116">
    <path clip-path="url(#p2b5b9d5234)" d="M 435.009375 252 
L 439.36875 252 
L 439.36875 252 
L 435.009375 252 
z
" style="fill:#1f77b4;"/>
   </g>
   <g id="patch_117">
    <path clip-path="url(#p2b5b9d5234)" d="M 439.36875 252 
L 443.728125 252 
L 443.728125 252 
L 439.36875 252 
z
" style="fill:#1f77b4;"/>
   </g>
   <g id="patch_118">
    <path clip-path="url(#p2b5b9d5234)" d="M 443.728125 252 
L 448.0875 252 
L 448.0875 252 
L 443.728125 252 
z
" style="fill:#1f77b4;"/>
   </g>
   <g id="patch_119">
    <path clip-path="url(#p2b5b9d5234)" d="M 448.0875 252 
L 452.446875 252 
L 452.446875 252 
L 448.0875 252 
z
" style="fill:#1f77b4;"/>
   </g>
   <g id="patch_120">
    <path clip-path="url(#p2b5b9d5234)" d="M 452.446875 252 
L 456.80625 252 
L 456.80625 252 
L 452.446875 252 
z
" style="fill:#1f77b4;"/>
   </g>
   <g id="patch_121">
    <path clip-path="url(#p2b5b9d5234)" d="M 456.80625 252 
L 461.165625 252 
L 461.165625 252 
L 456.80625 252 
z
" style="fill:#1f77b4;"/>
   </g>
   <g id="patch_122">
    <path clip-path="url(#p2b5b9d5234)" d="M 461.165625 252 
L 465.525 252 
L 465.525 252 
L 461.165625 252 
z
" style="fill:#1f77b4;"/>
   </g>
   <g id="patch_123">
    <path clip-path="url(#p2b5b9d5234)" d="M 465.525 252 
L 469.884375 252 
L 469.884375 252 
L 465.525 252 
z
" style="fill:#1f77b4;"/>
   </g>
   <g id="patch_124">
    <path clip-path="url(#p2b5b9d5234)" d="M 469.884375 252 
L 474.24375 252 
L 474.24375 252 
L 469.884375 252 
z
" style="fill:#1f77b4;"/>
   </g>
   <g id="patch_125">
    <path clip-path="url(#p2b5b9d5234)" d="M 474.24375 252 
L 478.603125 252 
L 478.603125 252 
L 474.24375 252 
z
" style="fill:#1f77b4;"/>
   </g>
   <g id="patch_126">
    <path clip-path="url(#p2b5b9d5234)" d="M 478.603125 252 
L 482.9625 252 
L 482.9625 252 
L 478.603125 252 
z
" style="fill:#1f77b4;"/>
   </g>
   <g id="patch_127">
    <path clip-path="url(#p2b5b9d5234)" d="M 482.9625 252 
L 487.321875 252 
L 487.321875 252 
L 482.9625 252 
z
" style="fill:#1f77b4;"/>
   </g>
   <g id="patch_128">
    <path clip-path="url(#p2b5b9d5234)" d="M 487.321875 252 
L 491.68125 252 
L 491.68125 252 
L 487.321875 252 
z
" style="fill:#1f77b4;"/>
   </g>
   <g id="patch_129">
    <path clip-path="url(#p2b5b9d5234)" d="M 491.68125 252 
L 496.040625 252 
L 496.040625 252 
L 491.68125 252 
z
" style="fill:#1f77b4;"/>
   </g>
   <g id="patch_130">
    <path clip-path="url(#p2b5b9d5234)" d="M 496.040625 252 
L 500.4 252 
L 500.4 252 
L 496.040625 252 
z
" style="fill:#1f77b4;"/>
   </g>
   <g id="patch_131">
    <path clip-path="url(#p2b5b9d5234)" d="M 500.4 252 
L 504.759375 252 
L 504.759375 252 
L 500.4 252 
z
" style="fill:#1f77b4;"/>
   </g>
   <g id="patch_132">
    <path clip-path="url(#p2b5b9d5234)" d="M 504.759375 252 
L 509.11875 252 
L 509.11875 252 
L 504.759375 252 
z
" style="fill:#1f77b4;"/>
   </g>
   <g id="patch_133">
    <path clip-path="url(#p2b5b9d5234)" d="M 509.11875 252 
L 513.478125 252 
L 513.478125 252 
L 509.11875 252 
z
" style="fill:#1f77b4;"/>
   </g>
   <g id="patch_134">
    <path clip-path="url(#p2b5b9d5234)" d="M 513.478125 252 
L 517.8375 252 
L 517.8375 252 
L 513.478125 252 
z
" style="fill:#1f77b4;"/>
   </g>
   <g id="patch_135">
    <path clip-path="url(#p2b5b9d5234)" d="M 517.8375 252 
L 522.196875 252 
L 522.196875 252 
L 517.8375 252 
z
" style="fill:#1f77b4;"/>
   </g>
   <g id="patch_136">
    <path clip-path="url(#p2b5b9d5234)" d="M 522.196875 252 
L 526.55625 252 
L 526.55625 252 
L 522.196875 252 
z
" style="fill:#1f77b4;"/>
   </g>
   <g id="patch_137">
    <path clip-path="url(#p2b5b9d5234)" d="M 526.55625 252 
L 530.915625 252 
L 530.915625 252 
L 526.55625 252 
z
" style="fill:#1f77b4;"/>
   </g>
   <g id="patch_138">
    <path clip-path="url(#p2b5b9d5234)" d="M 530.915625 252 
L 535.275 252 
L 535.275 252 
L 530.915625 252 
z
" style="fill:#1f77b4;"/>
   </g>
   <g id="patch_139">
    <path clip-path="url(#p2b5b9d5234)" d="M 535.275 252 
L 539.634375 252 
L 539.634375 252 
L 535.275 252 
z
" style="fill:#1f77b4;"/>
   </g>
   <g id="patch_140">
    <path clip-path="url(#p2b5b9d5234)" d="M 539.634375 252 
L 543.99375 252 
L 543.99375 252 
L 539.634375 252 
z
" style="fill:#1f77b4;"/>
   </g>
   <g id="patch_141">
    <path clip-path="url(#p2b5b9d5234)" d="M 543.99375 252 
L 548.353125 252 
L 548.353125 252 
L 543.99375 252 
z
" style="fill:#1f77b4;"/>
   </g>
   <g id="patch_142">
    <path clip-path="url(#p2b5b9d5234)" d="M 548.353125 252 
L 552.7125 252 
L 552.7125 252 
L 548.353125 252 
z
" style="fill:#1f77b4;"/>
   </g>
   <g id="patch_143">
    <path clip-path="url(#p2b5b9d5234)" d="M 552.7125 252 
L 557.071875 252 
L 557.071875 252 
L 552.7125 252 
z
" style="fill:#1f77b4;"/>
   </g>
   <g id="patch_144">
    <path clip-path="url(#p2b5b9d5234)" d="M 557.071875 252 
L 561.43125 252 
L 561.43125 252 
L 557.071875 252 
z
" style="fill:#1f77b4;"/>
   </g>
   <g id="patch_145">
    <path clip-path="url(#p2b5b9d5234)" d="M 561.43125 252 
L 565.790625 252 
L 565.790625 252 
L 561.43125 252 
z
" style="fill:#1f77b4;"/>
   </g>
   <g id="patch_146">
    <path clip-path="url(#p2b5b9d5234)" d="M 565.790625 252 
L 570.15 252 
L 570.15 252 
L 565.790625 252 
z
" style="fill:#1f77b4;"/>
   </g>
   <g id="patch_147">
    <path clip-path="url(#p2b5b9d5234)" d="M 570.15 252 
L 574.509375 252 
L 574.509375 252 
L 570.15 252 
z
" style="fill:#1f77b4;"/>
   </g>
   <g id="patch_148">
    <path clip-path="url(#p2b5b9d5234)" d="M 574.509375 252 
L 578.86875 252 
L 578.86875 252 
L 574.509375 252 
z
" style="fill:#1f77b4;"/>
   </g>
   <g id="patch_149">
    <path clip-path="url(#p2b5b9d5234)" d="M 578.86875 252 
L 583.228125 252 
L 583.228125 252 
L 578.86875 252 
z
" style="fill:#1f77b4;"/>
   </g>
   <g id="patch_150">
    <path clip-path="url(#p2b5b9d5234)" d="M 583.228125 252 
L 587.5875 252 
L 587.5875 252 
L 583.228125 252 
z
" style="fill:#1f77b4;"/>
   </g>
   <g id="patch_151">
    <path clip-path="url(#p2b5b9d5234)" d="M 587.5875 252 
L 591.946875 252 
L 591.946875 252 
L 587.5875 252 
z
" style="fill:#1f77b4;"/>
   </g>
   <g id="patch_152">
    <path clip-path="url(#p2b5b9d5234)" d="M 591.946875 252 
L 596.30625 252 
L 596.30625 252 
L 591.946875 252 
z
" style="fill:#1f77b4;"/>
   </g>
   <g id="patch_153">
    <path clip-path="url(#p2b5b9d5234)" d="M 596.30625 252 
L 600.665625 252 
L 600.665625 252 
L 596.30625 252 
z
" style="fill:#1f77b4;"/>
   </g>
   <g id="patch_154">
    <path clip-path="url(#p2b5b9d5234)" d="M 600.665625 252 
L 605.025 252 
L 605.025 252 
L 600.665625 252 
z
" style="fill:#1f77b4;"/>
   </g>
   <g id="patch_155">
    <path clip-path="url(#p2b5b9d5234)" d="M 605.025 252 
L 609.384375 252 
L 609.384375 252 
L 605.025 252 
z
" style="fill:#1f77b4;"/>
   </g>
   <g id="patch_156">
    <path clip-path="url(#p2b5b9d5234)" d="M 609.384375 252 
L 613.74375 252 
L 613.74375 252 
L 609.384375 252 
z
" style="fill:#1f77b4;"/>
   </g>
   <g id="patch_157">
    <path clip-path="url(#p2b5b9d5234)" d="M 613.74375 252 
L 618.103125 252 
L 618.103125 252 
L 613.74375 252 
z
" style="fill:#1f77b4;"/>
   </g>
   <g id="patch_158">
    <path clip-path="url(#p2b5b9d5234)" d="M 618.103125 252 
L 622.4625 252 
L 622.4625 252 
L 618.103125 252 
z
" style="fill:#1f77b4;"/>
   </g>
   <g id="patch_159">
    <path clip-path="url(#p2b5b9d5234)" d="M 622.4625 252 
L 626.821875 252 
L 626.821875 252 
L 622.4625 252 
z
" style="fill:#1f77b4;"/>
   </g>
   <g id="patch_160">
    <path clip-path="url(#p2b5b9d5234)" d="M 626.821875 252 
L 631.18125 252 
L 631.18125 252 
L 626.821875 252 
z
" style="fill:#1f77b4;"/>
   </g>
   <g id="patch_161">
    <path clip-path="url(#p2b5b9d5234)" d="M 631.18125 252 
L 635.540625 252 
L 635.540625 252 
L 631.18125 252 
z
" style="fill:#1f77b4;"/>
   </g>
   <g id="patch_162">
    <path clip-path="url(#p2b5b9d5234)" d="M 635.540625 252 
L 639.9 252 
L 639.9 252 
L 635.540625 252 
z
" style="fill:#1f77b4;"/>
   </g>
   <g id="patch_163">
    <path clip-path="url(#p2b5b9d5234)" d="M 639.9 252 
L 644.259375 252 
L 644.259375 252 
L 639.9 252 
z
" style="fill:#1f77b4;"/>
   </g>
   <g id="patch_164">
    <path clip-path="url(#p2b5b9d5234)" d="M 644.259375 252 
L 648.61875 252 
L 648.61875 252 
L 644.259375 252 
z
" style="fill:#1f77b4;"/>
   </g>
   <g id="patch_165">
    <path clip-path="url(#p2b5b9d5234)" d="M 648.61875 252 
L 652.978125 252 
L 652.978125 252 
L 648.61875 252 
z
" style="fill:#1f77b4;"/>
   </g>
   <g id="patch_166">
    <path clip-path="url(#p2b5b9d5234)" d="M 652.978125 252 
L 657.3375 252 
L 657.3375 252 
L 652.978125 252 
z
" style="fill:#1f77b4;"/>
   </g>
   <g id="patch_167">
    <path clip-path="url(#p2b5b9d5234)" d="M 657.3375 252 
L 661.696875 252 
L 661.696875 252 
L 657.3375 252 
z
" style="fill:#1f77b4;"/>
   </g>
   <g id="patch_168">
    <path clip-path="url(#p2b5b9d5234)" d="M 661.696875 252 
L 666.05625 252 
L 666.05625 252 
L 661.696875 252 
z
" style="fill:#1f77b4;"/>
   </g>
   <g id="patch_169">
    <path clip-path="url(#p2b5b9d5234)" d="M 666.05625 252 
L 670.415625 252 
L 670.415625 252 
L 666.05625 252 
z
" style="fill:#1f77b4;"/>
   </g>
   <g id="patch_170">
    <path clip-path="url(#p2b5b9d5234)" d="M 670.415625 252 
L 674.775 252 
L 674.775 252 
L 670.415625 252 
z
" style="fill:#1f77b4;"/>
   </g>
   <g id="patch_171">
    <path clip-path="url(#p2b5b9d5234)" d="M 674.775 252 
L 679.134375 252 
L 679.134375 252 
L 674.775 252 
z
" style="fill:#1f77b4;"/>
   </g>
   <g id="patch_172">
    <path clip-path="url(#p2b5b9d5234)" d="M 679.134375 252 
L 683.49375 252 
L 683.49375 252 
L 679.134375 252 
z
" style="fill:#1f77b4;"/>
   </g>
   <g id="patch_173">
    <path clip-path="url(#p2b5b9d5234)" d="M 683.49375 252 
L 687.853125 252 
L 687.853125 252 
L 683.49375 252 
z
" style="fill:#1f77b4;"/>
   </g>
   <g id="patch_174">
    <path clip-path="url(#p2b5b9d5234)" d="M 687.853125 252 
L 692.2125 252 
L 692.2125 252 
L 687.853125 252 
z
" style="fill:#1f77b4;"/>
   </g>
   <g id="patch_175">
    <path clip-path="url(#p2b5b9d5234)" d="M 692.2125 252 
L 696.571875 252 
L 696.571875 252 
L 692.2125 252 
z
" style="fill:#1f77b4;"/>
   </g>
   <g id="patch_176">
    <path clip-path="url(#p2b5b9d5234)" d="M 696.571875 252 
L 700.93125 252 
L 700.93125 252 
L 696.571875 252 
z
" style="fill:#1f77b4;"/>
   </g>
   <g id="patch_177">
    <path clip-path="url(#p2b5b9d5234)" d="M 700.93125 252 
L 705.290625 252 
L 705.290625 252 
L 700.93125 252 
z
" style="fill:#1f77b4;"/>
   </g>
   <g id="patch_178">
    <path clip-path="url(#p2b5b9d5234)" d="M 705.290625 252 
L 709.65 252 
L 709.65 252 
L 705.290625 252 
z
" style="fill:#1f77b4;"/>
   </g>
   <g id="patch_179">
    <path clip-path="url(#p2b5b9d5234)" d="M 709.65 252 
L 714.009375 252 
L 714.009375 252 
L 709.65 252 
z
" style="fill:#1f77b4;"/>
   </g>
   <g id="patch_180">
    <path clip-path="url(#p2b5b9d5234)" d="M 714.009375 252 
L 718.36875 252 
L 718.36875 252 
L 714.009375 252 
z
" style="fill:#1f77b4;"/>
   </g>
   <g id="patch_181">
    <path clip-path="url(#p2b5b9d5234)" d="M 718.36875 252 
L 722.728125 252 
L 722.728125 252 
L 718.36875 252 
z
" style="fill:#1f77b4;"/>
   </g>
   <g id="patch_182">
    <path clip-path="url(#p2b5b9d5234)" d="M 722.728125 252 
L 727.0875 252 
L 727.0875 252 
L 722.728125 252 
z
" style="fill:#1f77b4;"/>
   </g>
   <g id="patch_183">
    <path clip-path="url(#p2b5b9d5234)" d="M 727.0875 252 
L 731.446875 252 
L 731.446875 252 
L 727.0875 252 
z
" style="fill:#1f77b4;"/>
   </g>
   <g id="patch_184">
    <path clip-path="url(#p2b5b9d5234)" d="M 731.446875 252 
L 735.80625 252 
L 735.80625 252 
L 731.446875 252 
z
" style="fill:#1f77b4;"/>
   </g>
   <g id="patch_185">
    <path clip-path="url(#p2b5b9d5234)" d="M 735.80625 252 
L 740.165625 252 
L 740.165625 252 
L 735.80625 252 
z
" style="fill:#1f77b4;"/>
   </g>
   <g id="patch_186">
    <path clip-path="url(#p2b5b9d5234)" d="M 740.165625 252 
L 744.525 252 
L 744.525 252 
L 740.165625 252 
z
" style="fill:#1f77b4;"/>
   </g>
   <g id="patch_187">
    <path clip-path="url(#p2b5b9d5234)" d="M 744.525 252 
L 748.884375 252 
L 748.884375 252 
L 744.525 252 
z
" style="fill:#1f77b4;"/>
   </g>
   <g id="patch_188">
    <path clip-path="url(#p2b5b9d5234)" d="M 748.884375 252 
L 753.24375 252 
L 753.24375 252 
L 748.884375 252 
z
" style="fill:#1f77b4;"/>
   </g>
   <g id="patch_189">
    <path clip-path="url(#p2b5b9d5234)" d="M 753.24375 252 
L 757.603125 252 
L 757.603125 252 
L 753.24375 252 
z
" style="fill:#1f77b4;"/>
   </g>
   <g id="patch_190">
    <path clip-path="url(#p2b5b9d5234)" d="M 757.603125 252 
L 761.9625 252 
L 761.9625 252 
L 757.603125 252 
z
" style="fill:#1f77b4;"/>
   </g>
   <g id="patch_191">
    <path clip-path="url(#p2b5b9d5234)" d="M 761.9625 252 
L 766.321875 252 
L 766.321875 252 
L 761.9625 252 
z
" style="fill:#1f77b4;"/>
   </g>
   <g id="patch_192">
    <path clip-path="url(#p2b5b9d5234)" d="M 766.321875 252 
L 770.68125 252 
L 770.68125 252 
L 766.321875 252 
z
" style="fill:#1f77b4;"/>
   </g>
   <g id="patch_193">
    <path clip-path="url(#p2b5b9d5234)" d="M 770.68125 252 
L 775.040625 252 
L 775.040625 252 
L 770.68125 252 
z
" style="fill:#1f77b4;"/>
   </g>
   <g id="patch_194">
    <path clip-path="url(#p2b5b9d5234)" d="M 775.040625 252 
L 779.4 252 
L 779.4 252 
L 775.040625 252 
z
" style="fill:#1f77b4;"/>
   </g>
   <g id="patch_195">
    <path clip-path="url(#p2b5b9d5234)" d="M 779.4 252 
L 783.759375 252 
L 783.759375 252 
L 779.4 252 
z
" style="fill:#1f77b4;"/>
   </g>
   <g id="patch_196">
    <path clip-path="url(#p2b5b9d5234)" d="M 783.759375 252 
L 788.11875 252 
L 788.11875 252 
L 783.759375 252 
z
" style="fill:#1f77b4;"/>
   </g>
   <g id="patch_197">
    <path clip-path="url(#p2b5b9d5234)" d="M 788.11875 252 
L 792.478125 252 
L 792.478125 252 
L 788.11875 252 
z
" style="fill:#1f77b4;"/>
   </g>
   <g id="patch_198">
    <path clip-path="url(#p2b5b9d5234)" d="M 792.478125 252 
L 796.8375 252 
L 796.8375 252 
L 792.478125 252 
z
" style="fill:#1f77b4;"/>
   </g>
   <g id="patch_199">
    <path clip-path="url(#p2b5b9d5234)" d="M 796.8375 252 
L 801.196875 252 
L 801.196875 252 
L 796.8375 252 
z
" style="fill:#1f77b4;"/>
   </g>
   <g id="patch_200">
    <path clip-path="url(#p2b5b9d5234)" d="M 801.196875 252 
L 805.55625 252 
L 805.55625 252 
L 801.196875 252 
z
" style="fill:#1f77b4;"/>
   </g>
   <g id="patch_201">
    <path clip-path="url(#p2b5b9d5234)" d="M 805.55625 252 
L 809.915625 252 
L 809.915625 252 
L 805.55625 252 
z
" style="fill:#1f77b4;"/>
   </g>
   <g id="patch_202">
    <path clip-path="url(#p2b5b9d5234)" d="M 809.915625 252 
L 814.275 252 
L 814.275 252 
L 809.915625 252 
z
" style="fill:#1f77b4;"/>
   </g>
   <g id="patch_203">
    <path clip-path="url(#p2b5b9d5234)" d="M 814.275 252 
L 818.634375 252 
L 818.634375 252 
L 814.275 252 
z
" style="fill:#1f77b4;"/>
   </g>
   <g id="patch_204">
    <path clip-path="url(#p2b5b9d5234)" d="M 818.634375 252 
L 822.99375 252 
L 822.99375 252 
L 818.634375 252 
z
" style="fill:#1f77b4;"/>
   </g>
   <g id="patch_205">
    <path clip-path="url(#p2b5b9d5234)" d="M 822.99375 252 
L 827.353125 252 
L 827.353125 252 
L 822.99375 252 
z
" style="fill:#1f77b4;"/>
   </g>
   <g id="patch_206">
    <path clip-path="url(#p2b5b9d5234)" d="M 827.353125 252 
L 831.7125 252 
L 831.7125 252 
L 827.353125 252 
z
" style="fill:#1f77b4;"/>
   </g>
   <g id="patch_207">
    <path clip-path="url(#p2b5b9d5234)" d="M 831.7125 252 
L 836.071875 252 
L 836.071875 252 
L 831.7125 252 
z
" style="fill:#1f77b4;"/>
   </g>
   <g id="patch_208">
    <path clip-path="url(#p2b5b9d5234)" d="M 836.071875 252 
L 840.43125 252 
L 840.43125 252 
L 836.071875 252 
z
" style="fill:#1f77b4;"/>
   </g>
   <g id="patch_209">
    <path clip-path="url(#p2b5b9d5234)" d="M 840.43125 252 
L 844.790625 252 
L 844.790625 252 
L 840.43125 252 
z
" style="fill:#1f77b4;"/>
   </g>
   <g id="patch_210">
    <path clip-path="url(#p2b5b9d5234)" d="M 844.790625 252 
L 849.15 252 
L 849.15 252 
L 844.790625 252 
z
" style="fill:#1f77b4;"/>
   </g>
   <g id="patch_211">
    <path clip-path="url(#p2b5b9d5234)" d="M 849.15 252 
L 853.509375 252 
L 853.509375 252 
L 849.15 252 
z
" style="fill:#1f77b4;"/>
   </g>
   <g id="patch_212">
    <path clip-path="url(#p2b5b9d5234)" d="M 853.509375 252 
L 857.86875 252 
L 857.86875 252 
L 853.509375 252 
z
" style="fill:#1f77b4;"/>
   </g>
   <g id="patch_213">
    <path clip-path="url(#p2b5b9d5234)" d="M 857.86875 252 
L 862.228125 252 
L 862.228125 252 
L 857.86875 252 
z
" style="fill:#1f77b4;"/>
   </g>
   <g id="patch_214">
    <path clip-path="url(#p2b5b9d5234)" d="M 862.228125 252 
L 866.5875 252 
L 866.5875 252 
L 862.228125 252 
z
" style="fill:#1f77b4;"/>
   </g>
   <g id="patch_215">
    <path clip-path="url(#p2b5b9d5234)" d="M 866.5875 252 
L 870.946875 252 
L 870.946875 252 
L 866.5875 252 
z
" style="fill:#1f77b4;"/>
   </g>
   <g id="patch_216">
    <path clip-path="url(#p2b5b9d5234)" d="M 870.946875 252 
L 875.30625 252 
L 875.30625 252 
L 870.946875 252 
z
" style="fill:#1f77b4;"/>
   </g>
   <g id="patch_217">
    <path clip-path="url(#p2b5b9d5234)" d="M 875.30625 252 
L 879.665625 252 
L 879.665625 252 
L 875.30625 252 
z
" style="fill:#1f77b4;"/>
   </g>
   <g id="patch_218">
    <path clip-path="url(#p2b5b9d5234)" d="M 879.665625 252 
L 884.025 252 
L 884.025 252 
L 879.665625 252 
z
" style="fill:#1f77b4;"/>
   </g>
   <g id="patch_219">
    <path clip-path="url(#p2b5b9d5234)" d="M 884.025 252 
L 888.384375 252 
L 888.384375 252 
L 884.025 252 
z
" style="fill:#1f77b4;"/>
   </g>
   <g id="patch_220">
    <path clip-path="url(#p2b5b9d5234)" d="M 888.384375 252 
L 892.74375 252 
L 892.74375 252 
L 888.384375 252 
z
" style="fill:#1f77b4;"/>
   </g>
   <g id="patch_221">
    <path clip-path="url(#p2b5b9d5234)" d="M 892.74375 252 
L 897.103125 252 
L 897.103125 252 
L 892.74375 252 
z
" style="fill:#1f77b4;"/>
   </g>
   <g id="patch_222">
    <path clip-path="url(#p2b5b9d5234)" d="M 897.103125 252 
L 901.4625 252 
L 901.4625 252 
L 897.103125 252 
z
" style="fill:#1f77b4;"/>
   </g>
   <g id="patch_223">
    <path clip-path="url(#p2b5b9d5234)" d="M 901.4625 252 
L 905.821875 252 
L 905.821875 252 
L 901.4625 252 
z
" style="fill:#1f77b4;"/>
   </g>
   <g id="patch_224">
    <path clip-path="url(#p2b5b9d5234)" d="M 905.821875 252 
L 910.18125 252 
L 910.18125 252 
L 905.821875 252 
z
" style="fill:#1f77b4;"/>
   </g>
   <g id="patch_225">
    <path clip-path="url(#p2b5b9d5234)" d="M 910.18125 252 
L 914.540625 252 
L 914.540625 252 
L 910.18125 252 
z
" style="fill:#1f77b4;"/>
   </g>
   <g id="patch_226">
    <path clip-path="url(#p2b5b9d5234)" d="M 914.540625 252 
L 918.9 252 
L 918.9 252 
L 914.540625 252 
z
" style="fill:#1f77b4;"/>
   </g>
   <g id="patch_227">
    <path clip-path="url(#p2b5b9d5234)" d="M 918.9 252 
L 923.259375 252 
L 923.259375 252 
L 918.9 252 
z
" style="fill:#1f77b4;"/>
   </g>
   <g id="patch_228">
    <path clip-path="url(#p2b5b9d5234)" d="M 923.259375 252 
L 927.61875 252 
L 927.61875 252 
L 923.259375 252 
z
" style="fill:#1f77b4;"/>
   </g>
   <g id="patch_229">
    <path clip-path="url(#p2b5b9d5234)" d="M 927.61875 252 
L 931.978125 252 
L 931.978125 252 
L 927.61875 252 
z
" style="fill:#1f77b4;"/>
   </g>
   <g id="patch_230">
    <path clip-path="url(#p2b5b9d5234)" d="M 931.978125 252 
L 936.3375 252 
L 936.3375 252 
L 931.978125 252 
z
" style="fill:#1f77b4;"/>
   </g>
   <g id="patch_231">
    <path clip-path="url(#p2b5b9d5234)" d="M 936.3375 252 
L 940.696875 252 
L 940.696875 252 
L 936.3375 252 
z
" style="fill:#1f77b4;"/>
   </g>
   <g id="patch_232">
    <path clip-path="url(#p2b5b9d5234)" d="M 940.696875 252 
L 945.05625 252 
L 945.05625 252 
L 940.696875 252 
z
" style="fill:#1f77b4;"/>
   </g>
   <g id="patch_233">
    <path clip-path="url(#p2b5b9d5234)" d="M 945.05625 252 
L 949.415625 252 
L 949.415625 252 
L 945.05625 252 
z
" style="fill:#1f77b4;"/>
   </g>
   <g id="patch_234">
    <path clip-path="url(#p2b5b9d5234)" d="M 949.415625 252 
L 953.775 252 
L 953.775 252 
L 949.415625 252 
z
" style="fill:#1f77b4;"/>
   </g>
   <g id="patch_235">
    <path clip-path="url(#p2b5b9d5234)" d="M 953.775 252 
L 958.134375 252 
L 958.134375 252 
L 953.775 252 
z
" style="fill:#1f77b4;"/>
   </g>
   <g id="patch_236">
    <path clip-path="url(#p2b5b9d5234)" d="M 958.134375 252 
L 962.49375 252 
L 962.49375 252 
L 958.134375 252 
z
" style="fill:#1f77b4;"/>
   </g>
   <g id="patch_237">
    <path clip-path="url(#p2b5b9d5234)" d="M 962.49375 252 
L 966.853125 252 
L 966.853125 252 
L 962.49375 252 
z
" style="fill:#1f77b4;"/>
   </g>
   <g id="patch_238">
    <path clip-path="url(#p2b5b9d5234)" d="M 966.853125 252 
L 971.2125 252 
L 971.2125 252 
L 966.853125 252 
z
" style="fill:#1f77b4;"/>
   </g>
   <g id="patch_239">
    <path clip-path="url(#p2b5b9d5234)" d="M 971.2125 252 
L 975.571875 252 
L 975.571875 252 
L 971.2125 252 
z
" style="fill:#1f77b4;"/>
   </g>
   <g id="patch_240">
    <path clip-path="url(#p2b5b9d5234)" d="M 975.571875 252 
L 979.93125 252 
L 979.93125 252 
L 975.571875 252 
z
" style="fill:#1f77b4;"/>
   </g>
   <g id="patch_241">
    <path clip-path="url(#p2b5b9d5234)" d="M 979.93125 252 
L 984.290625 252 
L 984.290625 252 
L 979.93125 252 
z
" style="fill:#1f77b4;"/>
   </g>
   <g id="patch_242">
    <path clip-path="url(#p2b5b9d5234)" d="M 984.290625 252 
L 988.65 252 
L 988.65 252 
L 984.290625 252 
z
" style="fill:#1f77b4;"/>
   </g>
   <g id="patch_243">
    <path clip-path="url(#p2b5b9d5234)" d="M 988.65 252 
L 993.009375 252 
L 993.009375 252 
L 988.65 252 
z
" style="fill:#1f77b4;"/>
   </g>
   <g id="patch_244">
    <path clip-path="url(#p2b5b9d5234)" d="M 993.009375 252 
L 997.36875 252 
L 997.36875 252 
L 993.009375 252 
z
" style="fill:#1f77b4;"/>
   </g>
   <g id="patch_245">
    <path clip-path="url(#p2b5b9d5234)" d="M 997.36875 252 
L 1001.728125 252 
L 1001.728125 252 
L 997.36875 252 
z
" style="fill:#1f77b4;"/>
   </g>
   <g id="patch_246">
    <path clip-path="url(#p2b5b9d5234)" d="M 1001.728125 252 
L 1006.0875 252 
L 1006.0875 252 
L 1001.728125 252 
z
" style="fill:#1f77b4;"/>
   </g>
   <g id="patch_247">
    <path clip-path="url(#p2b5b9d5234)" d="M 1006.0875 252 
L 1010.446875 252 
L 1010.446875 252 
L 1006.0875 252 
z
" style="fill:#1f77b4;"/>
   </g>
   <g id="patch_248">
    <path clip-path="url(#p2b5b9d5234)" d="M 1010.446875 252 
L 1014.80625 252 
L 1014.80625 252 
L 1010.446875 252 
z
" style="fill:#1f77b4;"/>
   </g>
   <g id="patch_249">
    <path clip-path="url(#p2b5b9d5234)" d="M 1014.80625 252 
L 1019.165625 252 
L 1019.165625 252 
L 1014.80625 252 
z
" style="fill:#1f77b4;"/>
   </g>
   <g id="patch_250">
    <path clip-path="url(#p2b5b9d5234)" d="M 1019.165625 252 
L 1023.525 252 
L 1023.525 252 
L 1019.165625 252 
z
" style="fill:#1f77b4;"/>
   </g>
   <g id="patch_251">
    <path clip-path="url(#p2b5b9d5234)" d="M 1023.525 252 
L 1027.884375 252 
L 1027.884375 252 
L 1023.525 252 
z
" style="fill:#1f77b4;"/>
   </g>
   <g id="patch_252">
    <path clip-path="url(#p2b5b9d5234)" d="M 1027.884375 252 
L 1032.24375 252 
L 1032.24375 252 
L 1027.884375 252 
z
" style="fill:#1f77b4;"/>
   </g>
   <g id="patch_253">
    <path clip-path="url(#p2b5b9d5234)" d="M 1032.24375 252 
L 1036.603125 252 
L 1036.603125 252 
L 1032.24375 252 
z
" style="fill:#1f77b4;"/>
   </g>
   <g id="patch_254">
    <path clip-path="url(#p2b5b9d5234)" d="M 1036.603125 252 
L 1040.9625 252 
L 1040.9625 252 
L 1036.603125 252 
z
" style="fill:#1f77b4;"/>
   </g>
   <g id="patch_255">
    <path clip-path="url(#p2b5b9d5234)" d="M 1040.9625 252 
L 1045.321875 252 
L 1045.321875 252 
L 1040.9625 252 
z
" style="fill:#1f77b4;"/>
   </g>
   <g id="patch_256">
    <path clip-path="url(#p2b5b9d5234)" d="M 1045.321875 252 
L 1049.68125 252 
L 1049.68125 252 
L 1045.321875 252 
z
" style="fill:#1f77b4;"/>
   </g>
   <g id="patch_257">
    <path clip-path="url(#p2b5b9d5234)" d="M 1049.68125 252 
L 1054.040625 252 
L 1054.040625 252 
L 1049.68125 252 
z
" style="fill:#1f77b4;"/>
   </g>
   <g id="matplotlib.axis_1">
    <g id="xtick_1">
     <g id="line2d_1">
      <path clip-path="url(#p2b5b9d5234)" d="M 54 252 
L 54 34.56 
" style="fill:none;stroke:#999999;stroke-linecap:square;stroke-opacity:0.5;stroke-width:0.8;"/>
     </g>
     <g id="line2d_2">
      <defs>
       <path d="M 0 0 
L 0 3.5 
" id="m22b4643e33" style="stroke:#000000;stroke-width:0.8;"/>
      </defs>
      <g>
       <use style="stroke:#000000;stroke-width:0.8;" x="54" xlink:href="#m22b4643e33" y="252"/>
      </g>
     </g>
     <g id="text_1">
      <!-- 0.90 -->
      <defs>
       <path d="M 31.78125 66.40625 
Q 24.171875 66.40625 20.328125 58.90625 
Q 16.5 51.421875 16.5 36.375 
Q 16.5 21.390625 20.328125 13.890625 
Q 24.171875 6.390625 31.78125 6.390625 
Q 39.453125 6.390625 43.28125 13.890625 
Q 47.125 21.390625 47.125 36.375 
Q 47.125 51.421875 43.28125 58.90625 
Q 39.453125 66.40625 31.78125 66.40625 
z
M 31.78125 74.21875 
Q 44.046875 74.21875 50.515625 64.515625 
Q 56.984375 54.828125 56.984375 36.375 
Q 56.984375 17.96875 50.515625 8.265625 
Q 44.046875 -1.421875 31.78125 -1.421875 
Q 19.53125 -1.421875 13.0625 8.265625 
Q 6.59375 17.96875 6.59375 36.375 
Q 6.59375 54.828125 13.0625 64.515625 
Q 19.53125 74.21875 31.78125 74.21875 
z
" id="DejaVuSans-48"/>
       <path d="M 10.6875 12.40625 
L 21 12.40625 
L 21 0 
L 10.6875 0 
z
" id="DejaVuSans-46"/>
       <path d="M 10.984375 1.515625 
L 10.984375 10.5 
Q 14.703125 8.734375 18.5 7.8125 
Q 22.3125 6.890625 25.984375 6.890625 
Q 35.75 6.890625 40.890625 13.453125 
Q 46.046875 20.015625 46.78125 33.40625 
Q 43.953125 29.203125 39.59375 26.953125 
Q 35.25 24.703125 29.984375 24.703125 
Q 19.046875 24.703125 12.671875 31.3125 
Q 6.296875 37.9375 6.296875 49.421875 
Q 6.296875 60.640625 12.9375 67.421875 
Q 19.578125 74.21875 30.609375 74.21875 
Q 43.265625 74.21875 49.921875 64.515625 
Q 56.59375 54.828125 56.59375 36.375 
Q 56.59375 19.140625 48.40625 8.859375 
Q 40.234375 -1.421875 26.421875 -1.421875 
Q 22.703125 -1.421875 18.890625 -0.6875 
Q 15.09375 0.046875 10.984375 1.515625 
z
M 30.609375 32.421875 
Q 37.25 32.421875 41.125 36.953125 
Q 45.015625 41.5 45.015625 49.421875 
Q 45.015625 57.28125 41.125 61.84375 
Q 37.25 66.40625 30.609375 66.40625 
Q 23.96875 66.40625 20.09375 61.84375 
Q 16.21875 57.28125 16.21875 49.421875 
Q 16.21875 41.5 20.09375 36.953125 
Q 23.96875 32.421875 30.609375 32.421875 
z
" id="DejaVuSans-57"/>
      </defs>
      <g transform="translate(42.867188 266.598437)scale(0.1 -0.1)">
       <use xlink:href="#DejaVuSans-48"/>
       <use x="63.623047" xlink:href="#DejaVuSans-46"/>
       <use x="95.410156" xlink:href="#DejaVuSans-57"/>
       <use x="159.033203" xlink:href="#DejaVuSans-48"/>
      </g>
     </g>
    </g>
    <g id="xtick_2">
     <g id="line2d_3">
      <path clip-path="url(#p2b5b9d5234)" d="M 109.8 252 
L 109.8 34.56 
" style="fill:none;stroke:#999999;stroke-linecap:square;stroke-opacity:0.5;stroke-width:0.8;"/>
     </g>
     <g id="line2d_4">
      <g>
       <use style="stroke:#000000;stroke-width:0.8;" x="109.8" xlink:href="#m22b4643e33" y="252"/>
      </g>
     </g>
     <g id="text_2">
      <!-- 0.95 -->
      <defs>
       <path d="M 10.796875 72.90625 
L 49.515625 72.90625 
L 49.515625 64.59375 
L 19.828125 64.59375 
L 19.828125 46.734375 
Q 21.96875 47.46875 24.109375 47.828125 
Q 26.265625 48.1875 28.421875 48.1875 
Q 40.625 48.1875 47.75 41.5 
Q 54.890625 34.8125 54.890625 23.390625 
Q 54.890625 11.625 47.5625 5.09375 
Q 40.234375 -1.421875 26.90625 -1.421875 
Q 22.3125 -1.421875 17.546875 -0.640625 
Q 12.796875 0.140625 7.71875 1.703125 
L 7.71875 11.625 
Q 12.109375 9.234375 16.796875 8.0625 
Q 21.484375 6.890625 26.703125 6.890625 
Q 35.15625 6.890625 40.078125 11.328125 
Q 45.015625 15.765625 45.015625 23.390625 
Q 45.015625 31 40.078125 35.4375 
Q 35.15625 39.890625 26.703125 39.890625 
Q 22.75 39.890625 18.8125 39.015625 
Q 14.890625 38.140625 10.796875 36.28125 
z
" id="DejaVuSans-53"/>
      </defs>
      <g transform="translate(98.667188 266.598437)scale(0.1 -0.1)">
       <use xlink:href="#DejaVuSans-48"/>
       <use x="63.623047" xlink:href="#DejaVuSans-46"/>
       <use x="95.410156" xlink:href="#DejaVuSans-57"/>
       <use x="159.033203" xlink:href="#DejaVuSans-53"/>
      </g>
     </g>
    </g>
    <g id="xtick_3">
     <g id="line2d_5">
      <path clip-path="url(#p2b5b9d5234)" d="M 165.6 252 
L 165.6 34.56 
" style="fill:none;stroke:#999999;stroke-linecap:square;stroke-opacity:0.5;stroke-width:0.8;"/>
     </g>
     <g id="line2d_6">
      <g>
       <use style="stroke:#000000;stroke-width:0.8;" x="165.6" xlink:href="#m22b4643e33" y="252"/>
      </g>
     </g>
     <g id="text_3">
      <!-- 1.00 -->
      <defs>
       <path d="M 12.40625 8.296875 
L 28.515625 8.296875 
L 28.515625 63.921875 
L 10.984375 60.40625 
L 10.984375 69.390625 
L 28.421875 72.90625 
L 38.28125 72.90625 
L 38.28125 8.296875 
L 54.390625 8.296875 
L 54.390625 0 
L 12.40625 0 
z
" id="DejaVuSans-49"/>
      </defs>
      <g transform="translate(154.467188 266.598437)scale(0.1 -0.1)">
       <use xlink:href="#DejaVuSans-49"/>
       <use x="63.623047" xlink:href="#DejaVuSans-46"/>
       <use x="95.410156" xlink:href="#DejaVuSans-48"/>
       <use x="159.033203" xlink:href="#DejaVuSans-48"/>
      </g>
     </g>
    </g>
    <g id="xtick_4">
     <g id="line2d_7">
      <path clip-path="url(#p2b5b9d5234)" d="M 221.4 252 
L 221.4 34.56 
" style="fill:none;stroke:#999999;stroke-linecap:square;stroke-opacity:0.5;stroke-width:0.8;"/>
     </g>
     <g id="line2d_8">
      <g>
       <use style="stroke:#000000;stroke-width:0.8;" x="221.4" xlink:href="#m22b4643e33" y="252"/>
      </g>
     </g>
     <g id="text_4">
      <!-- 1.05 -->
      <g transform="translate(210.267187 266.598437)scale(0.1 -0.1)">
       <use xlink:href="#DejaVuSans-49"/>
       <use x="63.623047" xlink:href="#DejaVuSans-46"/>
       <use x="95.410156" xlink:href="#DejaVuSans-48"/>
       <use x="159.033203" xlink:href="#DejaVuSans-53"/>
      </g>
     </g>
    </g>
    <g id="xtick_5">
     <g id="line2d_9">
      <path clip-path="url(#p2b5b9d5234)" d="M 277.2 252 
L 277.2 34.56 
" style="fill:none;stroke:#999999;stroke-linecap:square;stroke-opacity:0.5;stroke-width:0.8;"/>
     </g>
     <g id="line2d_10">
      <g>
       <use style="stroke:#000000;stroke-width:0.8;" x="277.2" xlink:href="#m22b4643e33" y="252"/>
      </g>
     </g>
     <g id="text_5">
      <!-- 1.10 -->
      <g transform="translate(266.067188 266.598437)scale(0.1 -0.1)">
       <use xlink:href="#DejaVuSans-49"/>
       <use x="63.623047" xlink:href="#DejaVuSans-46"/>
       <use x="95.410156" xlink:href="#DejaVuSans-49"/>
       <use x="159.033203" xlink:href="#DejaVuSans-48"/>
      </g>
     </g>
    </g>
    <g id="xtick_6">
     <g id="line2d_11">
      <path clip-path="url(#p2b5b9d5234)" d="M 333 252 
L 333 34.56 
" style="fill:none;stroke:#999999;stroke-linecap:square;stroke-opacity:0.5;stroke-width:0.8;"/>
     </g>
     <g id="line2d_12">
      <g>
       <use style="stroke:#000000;stroke-width:0.8;" x="333" xlink:href="#m22b4643e33" y="252"/>
      </g>
     </g>
     <g id="text_6">
      <!-- 1.15 -->
      <g transform="translate(321.867188 266.598437)scale(0.1 -0.1)">
       <use xlink:href="#DejaVuSans-49"/>
       <use x="63.623047" xlink:href="#DejaVuSans-46"/>
       <use x="95.410156" xlink:href="#DejaVuSans-49"/>
       <use x="159.033203" xlink:href="#DejaVuSans-53"/>
      </g>
     </g>
    </g>
    <g id="xtick_7">
     <g id="line2d_13">
      <path clip-path="url(#p2b5b9d5234)" d="M 388.8 252 
L 388.8 34.56 
" style="fill:none;stroke:#999999;stroke-linecap:square;stroke-opacity:0.5;stroke-width:0.8;"/>
     </g>
     <g id="line2d_14">
      <g>
       <use style="stroke:#000000;stroke-width:0.8;" x="388.8" xlink:href="#m22b4643e33" y="252"/>
      </g>
     </g>
     <g id="text_7">
      <!-- 1.20 -->
      <defs>
       <path d="M 19.1875 8.296875 
L 53.609375 8.296875 
L 53.609375 0 
L 7.328125 0 
L 7.328125 8.296875 
Q 12.9375 14.109375 22.625 23.890625 
Q 32.328125 33.6875 34.8125 36.53125 
Q 39.546875 41.84375 41.421875 45.53125 
Q 43.3125 49.21875 43.3125 52.78125 
Q 43.3125 58.59375 39.234375 62.25 
Q 35.15625 65.921875 28.609375 65.921875 
Q 23.96875 65.921875 18.8125 64.3125 
Q 13.671875 62.703125 7.8125 59.421875 
L 7.8125 69.390625 
Q 13.765625 71.78125 18.9375 73 
Q 24.125 74.21875 28.421875 74.21875 
Q 39.75 74.21875 46.484375 68.546875 
Q 53.21875 62.890625 53.21875 53.421875 
Q 53.21875 48.921875 51.53125 44.890625 
Q 49.859375 40.875 45.40625 35.40625 
Q 44.1875 33.984375 37.640625 27.21875 
Q 31.109375 20.453125 19.1875 8.296875 
z
" id="DejaVuSans-50"/>
      </defs>
      <g transform="translate(377.667188 266.598437)scale(0.1 -0.1)">
       <use xlink:href="#DejaVuSans-49"/>
       <use x="63.623047" xlink:href="#DejaVuSans-46"/>
       <use x="95.410156" xlink:href="#DejaVuSans-50"/>
       <use x="159.033203" xlink:href="#DejaVuSans-48"/>
      </g>
     </g>
    </g>
    <g id="xtick_8">
     <g id="line2d_15">
      <defs>
       <path d="M 0 0 
L 0 2 
" id="m69ee87f107" style="stroke:#000000;stroke-width:0.6;"/>
      </defs>
      <g>
       <use style="stroke:#000000;stroke-width:0.6;" x="65.16" xlink:href="#m69ee87f107" y="252"/>
      </g>
     </g>
    </g>
    <g id="xtick_9">
     <g id="line2d_16">
      <g>
       <use style="stroke:#000000;stroke-width:0.6;" x="76.32" xlink:href="#m69ee87f107" y="252"/>
      </g>
     </g>
    </g>
    <g id="xtick_10">
     <g id="line2d_17">
      <g>
       <use style="stroke:#000000;stroke-width:0.6;" x="87.48" xlink:href="#m69ee87f107" y="252"/>
      </g>
     </g>
    </g>
    <g id="xtick_11">
     <g id="line2d_18">
      <g>
       <use style="stroke:#000000;stroke-width:0.6;" x="98.64" xlink:href="#m69ee87f107" y="252"/>
      </g>
     </g>
    </g>
    <g id="xtick_12">
     <g id="line2d_19">
      <g>
       <use style="stroke:#000000;stroke-width:0.6;" x="120.96" xlink:href="#m69ee87f107" y="252"/>
      </g>
     </g>
    </g>
    <g id="xtick_13">
     <g id="line2d_20">
      <g>
       <use style="stroke:#000000;stroke-width:0.6;" x="132.12" xlink:href="#m69ee87f107" y="252"/>
      </g>
     </g>
    </g>
    <g id="xtick_14">
     <g id="line2d_21">
      <g>
       <use style="stroke:#000000;stroke-width:0.6;" x="143.28" xlink:href="#m69ee87f107" y="252"/>
      </g>
     </g>
    </g>
    <g id="xtick_15">
     <g id="line2d_22">
      <g>
       <use style="stroke:#000000;stroke-width:0.6;" x="154.44" xlink:href="#m69ee87f107" y="252"/>
      </g>
     </g>
    </g>
    <g id="xtick_16">
     <g id="line2d_23">
      <g>
       <use style="stroke:#000000;stroke-width:0.6;" x="176.76" xlink:href="#m69ee87f107" y="252"/>
      </g>
     </g>
    </g>
    <g id="xtick_17">
     <g id="line2d_24">
      <g>
       <use style="stroke:#000000;stroke-width:0.6;" x="187.92" xlink:href="#m69ee87f107" y="252"/>
      </g>
     </g>
    </g>
    <g id="xtick_18">
     <g id="line2d_25">
      <g>
       <use style="stroke:#000000;stroke-width:0.6;" x="199.08" xlink:href="#m69ee87f107" y="252"/>
      </g>
     </g>
    </g>
    <g id="xtick_19">
     <g id="line2d_26">
      <g>
       <use style="stroke:#000000;stroke-width:0.6;" x="210.24" xlink:href="#m69ee87f107" y="252"/>
      </g>
     </g>
    </g>
    <g id="xtick_20">
     <g id="line2d_27">
      <g>
       <use style="stroke:#000000;stroke-width:0.6;" x="232.56" xlink:href="#m69ee87f107" y="252"/>
      </g>
     </g>
    </g>
    <g id="xtick_21">
     <g id="line2d_28">
      <g>
       <use style="stroke:#000000;stroke-width:0.6;" x="243.72" xlink:href="#m69ee87f107" y="252"/>
      </g>
     </g>
    </g>
    <g id="xtick_22">
     <g id="line2d_29">
      <g>
       <use style="stroke:#000000;stroke-width:0.6;" x="254.88" xlink:href="#m69ee87f107" y="252"/>
      </g>
     </g>
    </g>
    <g id="xtick_23">
     <g id="line2d_30">
      <g>
       <use style="stroke:#000000;stroke-width:0.6;" x="266.04" xlink:href="#m69ee87f107" y="252"/>
      </g>
     </g>
    </g>
    <g id="xtick_24">
     <g id="line2d_31">
      <g>
       <use style="stroke:#000000;stroke-width:0.6;" x="288.36" xlink:href="#m69ee87f107" y="252"/>
      </g>
     </g>
    </g>
    <g id="xtick_25">
     <g id="line2d_32">
      <g>
       <use style="stroke:#000000;stroke-width:0.6;" x="299.52" xlink:href="#m69ee87f107" y="252"/>
      </g>
     </g>
    </g>
    <g id="xtick_26">
     <g id="line2d_33">
      <g>
       <use style="stroke:#000000;stroke-width:0.6;" x="310.68" xlink:href="#m69ee87f107" y="252"/>
      </g>
     </g>
    </g>
    <g id="xtick_27">
     <g id="line2d_34">
      <g>
       <use style="stroke:#000000;stroke-width:0.6;" x="321.84" xlink:href="#m69ee87f107" y="252"/>
      </g>
     </g>
    </g>
    <g id="xtick_28">
     <g id="line2d_35">
      <g>
       <use style="stroke:#000000;stroke-width:0.6;" x="344.16" xlink:href="#m69ee87f107" y="252"/>
      </g>
     </g>
    </g>
    <g id="xtick_29">
     <g id="line2d_36">
      <g>
       <use style="stroke:#000000;stroke-width:0.6;" x="355.32" xlink:href="#m69ee87f107" y="252"/>
      </g>
     </g>
    </g>
    <g id="xtick_30">
     <g id="line2d_37">
      <g>
       <use style="stroke:#000000;stroke-width:0.6;" x="366.48" xlink:href="#m69ee87f107" y="252"/>
      </g>
     </g>
    </g>
    <g id="xtick_31">
     <g id="line2d_38">
      <g>
       <use style="stroke:#000000;stroke-width:0.6;" x="377.64" xlink:href="#m69ee87f107" y="252"/>
      </g>
     </g>
    </g>
    <g id="text_8">
     <!-- Risk ratio on Monday -->
     <defs>
      <path d="M 44.390625 34.1875 
Q 47.5625 33.109375 50.5625 29.59375 
Q 53.5625 26.078125 56.59375 19.921875 
L 66.609375 0 
L 56 0 
L 46.6875 18.703125 
Q 43.0625 26.03125 39.671875 28.421875 
Q 36.28125 30.8125 30.421875 30.8125 
L 19.671875 30.8125 
L 19.671875 0 
L 9.8125 0 
L 9.8125 72.90625 
L 32.078125 72.90625 
Q 44.578125 72.90625 50.734375 67.671875 
Q 56.890625 62.453125 56.890625 51.90625 
Q 56.890625 45.015625 53.6875 40.46875 
Q 50.484375 35.9375 44.390625 34.1875 
z
M 19.671875 64.796875 
L 19.671875 38.921875 
L 32.078125 38.921875 
Q 39.203125 38.921875 42.84375 42.21875 
Q 46.484375 45.515625 46.484375 51.90625 
Q 46.484375 58.296875 42.84375 61.546875 
Q 39.203125 64.796875 32.078125 64.796875 
z
" id="DejaVuSans-82"/>
      <path d="M 9.421875 54.6875 
L 18.40625 54.6875 
L 18.40625 0 
L 9.421875 0 
z
M 9.421875 75.984375 
L 18.40625 75.984375 
L 18.40625 64.59375 
L 9.421875 64.59375 
z
" id="DejaVuSans-105"/>
      <path d="M 44.28125 53.078125 
L 44.28125 44.578125 
Q 40.484375 46.53125 36.375 47.5 
Q 32.28125 48.484375 27.875 48.484375 
Q 21.1875 48.484375 17.84375 46.4375 
Q 14.5 44.390625 14.5 40.28125 
Q 14.5 37.15625 16.890625 35.375 
Q 19.28125 33.59375 26.515625 31.984375 
L 29.59375 31.296875 
Q 39.15625 29.25 43.1875 25.515625 
Q 47.21875 21.78125 47.21875 15.09375 
Q 47.21875 7.46875 41.1875 3.015625 
Q 35.15625 -1.421875 24.609375 -1.421875 
Q 20.21875 -1.421875 15.453125 -0.5625 
Q 10.6875 0.296875 5.421875 2 
L 5.421875 11.28125 
Q 10.40625 8.6875 15.234375 7.390625 
Q 20.0625 6.109375 24.8125 6.109375 
Q 31.15625 6.109375 34.5625 8.28125 
Q 37.984375 10.453125 37.984375 14.40625 
Q 37.984375 18.0625 35.515625 20.015625 
Q 33.0625 21.96875 24.703125 23.78125 
L 21.578125 24.515625 
Q 13.234375 26.265625 9.515625 29.90625 
Q 5.8125 33.546875 5.8125 39.890625 
Q 5.8125 47.609375 11.28125 51.796875 
Q 16.75 56 26.8125 56 
Q 31.78125 56 36.171875 55.265625 
Q 40.578125 54.546875 44.28125 53.078125 
z
" id="DejaVuSans-115"/>
      <path d="M 9.078125 75.984375 
L 18.109375 75.984375 
L 18.109375 31.109375 
L 44.921875 54.6875 
L 56.390625 54.6875 
L 27.390625 29.109375 
L 57.625 0 
L 45.90625 0 
L 18.109375 26.703125 
L 18.109375 0 
L 9.078125 0 
z
" id="DejaVuSans-107"/>
      <path id="DejaVuSans-32"/>
      <path d="M 41.109375 46.296875 
Q 39.59375 47.171875 37.8125 47.578125 
Q 36.03125 48 33.890625 48 
Q 26.265625 48 22.1875 43.046875 
Q 18.109375 38.09375 18.109375 28.8125 
L 18.109375 0 
L 9.078125 0 
L 9.078125 54.6875 
L 18.109375 54.6875 
L 18.109375 46.1875 
Q 20.953125 51.171875 25.484375 53.578125 
Q 30.03125 56 36.53125 56 
Q 37.453125 56 38.578125 55.875 
Q 39.703125 55.765625 41.0625 55.515625 
z
" id="DejaVuSans-114"/>
      <path d="M 34.28125 27.484375 
Q 23.390625 27.484375 19.1875 25 
Q 14.984375 22.515625 14.984375 16.5 
Q 14.984375 11.71875 18.140625 8.90625 
Q 21.296875 6.109375 26.703125 6.109375 
Q 34.1875 6.109375 38.703125 11.40625 
Q 43.21875 16.703125 43.21875 25.484375 
L 43.21875 27.484375 
z
M 52.203125 31.203125 
L 52.203125 0 
L 43.21875 0 
L 43.21875 8.296875 
Q 40.140625 3.328125 35.546875 0.953125 
Q 30.953125 -1.421875 24.3125 -1.421875 
Q 15.921875 -1.421875 10.953125 3.296875 
Q 6 8.015625 6 15.921875 
Q 6 25.140625 12.171875 29.828125 
Q 18.359375 34.515625 30.609375 34.515625 
L 43.21875 34.515625 
L 43.21875 35.40625 
Q 43.21875 41.609375 39.140625 45 
Q 35.0625 48.390625 27.6875 48.390625 
Q 23 48.390625 18.546875 47.265625 
Q 14.109375 46.140625 10.015625 43.890625 
L 10.015625 52.203125 
Q 14.9375 54.109375 19.578125 55.046875 
Q 24.21875 56 28.609375 56 
Q 40.484375 56 46.34375 49.84375 
Q 52.203125 43.703125 52.203125 31.203125 
z
" id="DejaVuSans-97"/>
      <path d="M 18.3125 70.21875 
L 18.3125 54.6875 
L 36.8125 54.6875 
L 36.8125 47.703125 
L 18.3125 47.703125 
L 18.3125 18.015625 
Q 18.3125 11.328125 20.140625 9.421875 
Q 21.96875 7.515625 27.59375 7.515625 
L 36.8125 7.515625 
L 36.8125 0 
L 27.59375 0 
Q 17.1875 0 13.234375 3.875 
Q 9.28125 7.765625 9.28125 18.015625 
L 9.28125 47.703125 
L 2.6875 47.703125 
L 2.6875 54.6875 
L 9.28125 54.6875 
L 9.28125 70.21875 
z
" id="DejaVuSans-116"/>
      <path d="M 30.609375 48.390625 
Q 23.390625 48.390625 19.1875 42.75 
Q 14.984375 37.109375 14.984375 27.296875 
Q 14.984375 17.484375 19.15625 11.84375 
Q 23.34375 6.203125 30.609375 6.203125 
Q 37.796875 6.203125 41.984375 11.859375 
Q 46.1875 17.53125 46.1875 27.296875 
Q 46.1875 37.015625 41.984375 42.703125 
Q 37.796875 48.390625 30.609375 48.390625 
z
M 30.609375 56 
Q 42.328125 56 49.015625 48.375 
Q 55.71875 40.765625 55.71875 27.296875 
Q 55.71875 13.875 49.015625 6.21875 
Q 42.328125 -1.421875 30.609375 -1.421875 
Q 18.84375 -1.421875 12.171875 6.21875 
Q 5.515625 13.875 5.515625 27.296875 
Q 5.515625 40.765625 12.171875 48.375 
Q 18.84375 56 30.609375 56 
z
" id="DejaVuSans-111"/>
      <path d="M 54.890625 33.015625 
L 54.890625 0 
L 45.90625 0 
L 45.90625 32.71875 
Q 45.90625 40.484375 42.875 44.328125 
Q 39.84375 48.1875 33.796875 48.1875 
Q 26.515625 48.1875 22.3125 43.546875 
Q 18.109375 38.921875 18.109375 30.90625 
L 18.109375 0 
L 9.078125 0 
L 9.078125 54.6875 
L 18.109375 54.6875 
L 18.109375 46.1875 
Q 21.34375 51.125 25.703125 53.5625 
Q 30.078125 56 35.796875 56 
Q 45.21875 56 50.046875 50.171875 
Q 54.890625 44.34375 54.890625 33.015625 
z
" id="DejaVuSans-110"/>
      <path d="M 9.8125 72.90625 
L 24.515625 72.90625 
L 43.109375 23.296875 
L 61.8125 72.90625 
L 76.515625 72.90625 
L 76.515625 0 
L 66.890625 0 
L 66.890625 64.015625 
L 48.09375 14.015625 
L 38.1875 14.015625 
L 19.390625 64.015625 
L 19.390625 0 
L 9.8125 0 
z
" id="DejaVuSans-77"/>
      <path d="M 45.40625 46.390625 
L 45.40625 75.984375 
L 54.390625 75.984375 
L 54.390625 0 
L 45.40625 0 
L 45.40625 8.203125 
Q 42.578125 3.328125 38.25 0.953125 
Q 33.9375 -1.421875 27.875 -1.421875 
Q 17.96875 -1.421875 11.734375 6.484375 
Q 5.515625 14.40625 5.515625 27.296875 
Q 5.515625 40.1875 11.734375 48.09375 
Q 17.96875 56 27.875 56 
Q 33.9375 56 38.25 53.625 
Q 42.578125 51.265625 45.40625 46.390625 
z
M 14.796875 27.296875 
Q 14.796875 17.390625 18.875 11.75 
Q 22.953125 6.109375 30.078125 6.109375 
Q 37.203125 6.109375 41.296875 11.75 
Q 45.40625 17.390625 45.40625 27.296875 
Q 45.40625 37.203125 41.296875 42.84375 
Q 37.203125 48.484375 30.078125 48.484375 
Q 22.953125 48.484375 18.875 42.84375 
Q 14.796875 37.203125 14.796875 27.296875 
z
" id="DejaVuSans-100"/>
      <path d="M 32.171875 -5.078125 
Q 28.375 -14.84375 24.75 -17.8125 
Q 21.140625 -20.796875 15.09375 -20.796875 
L 7.90625 -20.796875 
L 7.90625 -13.28125 
L 13.1875 -13.28125 
Q 16.890625 -13.28125 18.9375 -11.515625 
Q 21 -9.765625 23.484375 -3.21875 
L 25.09375 0.875 
L 2.984375 54.6875 
L 12.5 54.6875 
L 29.59375 11.921875 
L 46.6875 54.6875 
L 56.203125 54.6875 
z
" id="DejaVuSans-121"/>
     </defs>
     <g transform="translate(158.248125 281.79625)scale(0.12 -0.12)">
      <use xlink:href="#DejaVuSans-82"/>
      <use x="69.482422" xlink:href="#DejaVuSans-105"/>
      <use x="97.265625" xlink:href="#DejaVuSans-115"/>
      <use x="149.365234" xlink:href="#DejaVuSans-107"/>
      <use x="207.275391" xlink:href="#DejaVuSans-32"/>
      <use x="239.0625" xlink:href="#DejaVuSans-114"/>
      <use x="280.175781" xlink:href="#DejaVuSans-97"/>
      <use x="341.455078" xlink:href="#DejaVuSans-116"/>
      <use x="380.664062" xlink:href="#DejaVuSans-105"/>
      <use x="408.447266" xlink:href="#DejaVuSans-111"/>
      <use x="469.628906" xlink:href="#DejaVuSans-32"/>
      <use x="501.416016" xlink:href="#DejaVuSans-111"/>
      <use x="562.597656" xlink:href="#DejaVuSans-110"/>
      <use x="625.976562" xlink:href="#DejaVuSans-32"/>
      <use x="657.763672" xlink:href="#DejaVuSans-77"/>
      <use x="744.042969" xlink:href="#DejaVuSans-111"/>
      <use x="805.224609" xlink:href="#DejaVuSans-110"/>
      <use x="868.603516" xlink:href="#DejaVuSans-100"/>
      <use x="932.080078" xlink:href="#DejaVuSans-97"/>
      <use x="993.359375" xlink:href="#DejaVuSans-121"/>
     </g>
    </g>
   </g>
   <g id="matplotlib.axis_2">
    <g id="ytick_1">
     <g id="line2d_39">
      <path clip-path="url(#p2b5b9d5234)" d="M 54 252 
L 388.8 252 
" style="fill:none;stroke:#999999;stroke-linecap:square;stroke-opacity:0.5;stroke-width:0.8;"/>
     </g>
     <g id="line2d_40">
      <defs>
       <path d="M 0 0 
L -3.5 0 
" id="mc90c3dbfd7" style="stroke:#000000;stroke-width:0.8;"/>
      </defs>
      <g>
       <use style="stroke:#000000;stroke-width:0.8;" x="54" xlink:href="#mc90c3dbfd7" y="252"/>
      </g>
     </g>
     <g id="text_9">
      <!-- 0 -->
      <g transform="translate(40.6375 255.799219)scale(0.1 -0.1)">
       <use xlink:href="#DejaVuSans-48"/>
      </g>
     </g>
    </g>
    <g id="ytick_2">
     <g id="line2d_41">
      <path clip-path="url(#p2b5b9d5234)" d="M 54 211.989395 
L 388.8 211.989395 
" style="fill:none;stroke:#999999;stroke-linecap:square;stroke-opacity:0.5;stroke-width:0.8;"/>
     </g>
     <g id="line2d_42">
      <g>
       <use style="stroke:#000000;stroke-width:0.8;" x="54" xlink:href="#mc90c3dbfd7" y="211.989395"/>
      </g>
     </g>
     <g id="text_10">
      <!-- 5 -->
      <g transform="translate(40.6375 215.788614)scale(0.1 -0.1)">
       <use xlink:href="#DejaVuSans-53"/>
      </g>
     </g>
    </g>
    <g id="ytick_3">
     <g id="line2d_43">
      <path clip-path="url(#p2b5b9d5234)" d="M 54 171.978791 
L 388.8 171.978791 
" style="fill:none;stroke:#999999;stroke-linecap:square;stroke-opacity:0.5;stroke-width:0.8;"/>
     </g>
     <g id="line2d_44">
      <g>
       <use style="stroke:#000000;stroke-width:0.8;" x="54" xlink:href="#mc90c3dbfd7" y="171.978791"/>
      </g>
     </g>
     <g id="text_11">
      <!-- 10 -->
      <g transform="translate(34.275 175.77801)scale(0.1 -0.1)">
       <use xlink:href="#DejaVuSans-49"/>
       <use x="63.623047" xlink:href="#DejaVuSans-48"/>
      </g>
     </g>
    </g>
    <g id="ytick_4">
     <g id="line2d_45">
      <path clip-path="url(#p2b5b9d5234)" d="M 54 131.968186 
L 388.8 131.968186 
" style="fill:none;stroke:#999999;stroke-linecap:square;stroke-opacity:0.5;stroke-width:0.8;"/>
     </g>
     <g id="line2d_46">
      <g>
       <use style="stroke:#000000;stroke-width:0.8;" x="54" xlink:href="#mc90c3dbfd7" y="131.968186"/>
      </g>
     </g>
     <g id="text_12">
      <!-- 15 -->
      <g transform="translate(34.275 135.767405)scale(0.1 -0.1)">
       <use xlink:href="#DejaVuSans-49"/>
       <use x="63.623047" xlink:href="#DejaVuSans-53"/>
      </g>
     </g>
    </g>
    <g id="ytick_5">
     <g id="line2d_47">
      <path clip-path="url(#p2b5b9d5234)" d="M 54 91.957582 
L 388.8 91.957582 
" style="fill:none;stroke:#999999;stroke-linecap:square;stroke-opacity:0.5;stroke-width:0.8;"/>
     </g>
     <g id="line2d_48">
      <g>
       <use style="stroke:#000000;stroke-width:0.8;" x="54" xlink:href="#mc90c3dbfd7" y="91.957582"/>
      </g>
     </g>
     <g id="text_13">
      <!-- 20 -->
      <g transform="translate(34.275 95.756801)scale(0.1 -0.1)">
       <use xlink:href="#DejaVuSans-50"/>
       <use x="63.623047" xlink:href="#DejaVuSans-48"/>
      </g>
     </g>
    </g>
    <g id="ytick_6">
     <g id="line2d_49">
      <path clip-path="url(#p2b5b9d5234)" d="M 54 51.946977 
L 388.8 51.946977 
" style="fill:none;stroke:#999999;stroke-linecap:square;stroke-opacity:0.5;stroke-width:0.8;"/>
     </g>
     <g id="line2d_50">
      <g>
       <use style="stroke:#000000;stroke-width:0.8;" x="54" xlink:href="#mc90c3dbfd7" y="51.946977"/>
      </g>
     </g>
     <g id="text_14">
      <!-- 25 -->
      <g transform="translate(34.275 55.746196)scale(0.1 -0.1)">
       <use xlink:href="#DejaVuSans-50"/>
       <use x="63.623047" xlink:href="#DejaVuSans-53"/>
      </g>
     </g>
    </g>
   </g>
   <g id="line2d_51">
    <path clip-path="url(#p2b5b9d5234)" d="M -1 252 
L 178.992 251.892954 
L 187.92 251.603944 
L 192.384 251.284919 
L 195.732 250.841311 
L 197.964 250.365785 
L 200.196 249.668695 
L 202.428 248.662209 
L 204.66 247.238442 
L 205.776 246.330812 
L 206.892 245.269282 
L 208.008 244.034873 
L 209.124 242.607602 
L 210.24 240.966646 
L 211.356 239.090558 
L 212.472 236.957539 
L 213.588 234.545764 
L 214.704 231.833774 
L 215.82 228.800922 
L 216.936 225.427868 
L 219.168 217.593673 
L 221.4 208.224345 
L 223.632 197.271916 
L 225.864 184.766597 
L 228.096 170.833459 
L 231.444 147.793267 
L 239.256 91.531438 
L 241.488 77.35099 
L 243.72 65.138029 
L 244.836 59.946381 
L 245.952 55.448063 
L 247.068 51.696618 
L 248.184 48.73706 
L 249.3 46.604969 
L 250.416 45.325783 
L 251.532 44.914286 
L 252.648 45.374334 
L 253.764 46.698797 
L 254.88 48.869737 
L 255.996 51.858813 
L 257.112 55.627887 
L 258.228 60.12984 
L 259.344 65.309539 
L 261.576 77.448421 
L 263.808 91.488235 
L 267.156 114.787155 
L 272.736 154.704714 
L 274.968 169.603302 
L 277.2 183.350145 
L 279.432 195.726672 
L 281.664 206.614199 
L 283.896 215.982547 
L 286.128 223.874345 
L 288.36 230.387256 
L 290.592 235.656102 
L 291.708 237.872204 
L 292.824 239.836443 
L 293.94 241.569221 
L 295.056 243.090661 
L 296.172 244.420348 
L 298.404 246.578836 
L 300.636 248.183485 
L 302.868 249.3552 
L 305.1 250.195776 
L 307.332 250.788343 
L 310.68 251.352422 
L 314.028 251.665806 
L 319.608 251.897301 
L 329.652 251.990358 
L 385.452 252 
L 433 252 
L 433 252 
" style="fill:none;stroke:#006400;stroke-linecap:square;stroke-opacity:0.4;stroke-width:3;"/>
   </g>
   <g id="line2d_52">
    <path d="M 220.737369 252 
L 285.553129 252 
" style="fill:none;stroke:#000000;stroke-linecap:square;stroke-width:5;"/>
   </g>
   <g id="patch_258">
    <path d="M 54 252 
L 54 34.56 
" style="fill:none;stroke:#000000;stroke-linecap:square;stroke-linejoin:miter;stroke-width:0.8;"/>
   </g>
   <g id="patch_259">
    <path d="M 388.8 252 
L 388.8 34.56 
" style="fill:none;stroke:#000000;stroke-linecap:square;stroke-linejoin:miter;stroke-width:0.8;"/>
   </g>
   <g id="patch_260">
    <path d="M 54 252 
L 388.8 252 
" style="fill:none;stroke:#000000;stroke-linecap:square;stroke-linejoin:miter;stroke-width:0.8;"/>
   </g>
   <g id="patch_261">
    <path d="M 54 34.56 
L 388.8 34.56 
" style="fill:none;stroke:#000000;stroke-linecap:square;stroke-linejoin:miter;stroke-width:0.8;"/>
   </g>
   <g id="text_15">
    <!-- Posterior after uniform prior -->
    <defs>
     <path d="M 19.671875 64.796875 
L 19.671875 37.40625 
L 32.078125 37.40625 
Q 38.96875 37.40625 42.71875 40.96875 
Q 46.484375 44.53125 46.484375 51.125 
Q 46.484375 57.671875 42.71875 61.234375 
Q 38.96875 64.796875 32.078125 64.796875 
z
M 9.8125 72.90625 
L 32.078125 72.90625 
Q 44.34375 72.90625 50.609375 67.359375 
Q 56.890625 61.8125 56.890625 51.125 
Q 56.890625 40.328125 50.609375 34.8125 
Q 44.34375 29.296875 32.078125 29.296875 
L 19.671875 29.296875 
L 19.671875 0 
L 9.8125 0 
z
" id="DejaVuSans-80"/>
     <path d="M 56.203125 29.59375 
L 56.203125 25.203125 
L 14.890625 25.203125 
Q 15.484375 15.921875 20.484375 11.0625 
Q 25.484375 6.203125 34.421875 6.203125 
Q 39.59375 6.203125 44.453125 7.46875 
Q 49.3125 8.734375 54.109375 11.28125 
L 54.109375 2.78125 
Q 49.265625 0.734375 44.1875 -0.34375 
Q 39.109375 -1.421875 33.890625 -1.421875 
Q 20.796875 -1.421875 13.15625 6.1875 
Q 5.515625 13.8125 5.515625 26.8125 
Q 5.515625 40.234375 12.765625 48.109375 
Q 20.015625 56 32.328125 56 
Q 43.359375 56 49.78125 48.890625 
Q 56.203125 41.796875 56.203125 29.59375 
z
M 47.21875 32.234375 
Q 47.125 39.59375 43.09375 43.984375 
Q 39.0625 48.390625 32.421875 48.390625 
Q 24.90625 48.390625 20.390625 44.140625 
Q 15.875 39.890625 15.1875 32.171875 
z
" id="DejaVuSans-101"/>
     <path d="M 37.109375 75.984375 
L 37.109375 68.5 
L 28.515625 68.5 
Q 23.6875 68.5 21.796875 66.546875 
Q 19.921875 64.59375 19.921875 59.515625 
L 19.921875 54.6875 
L 34.71875 54.6875 
L 34.71875 47.703125 
L 19.921875 47.703125 
L 19.921875 0 
L 10.890625 0 
L 10.890625 47.703125 
L 2.296875 47.703125 
L 2.296875 54.6875 
L 10.890625 54.6875 
L 10.890625 58.5 
Q 10.890625 67.625 15.140625 71.796875 
Q 19.390625 75.984375 28.609375 75.984375 
z
" id="DejaVuSans-102"/>
     <path d="M 8.5 21.578125 
L 8.5 54.6875 
L 17.484375 54.6875 
L 17.484375 21.921875 
Q 17.484375 14.15625 20.5 10.265625 
Q 23.53125 6.390625 29.59375 6.390625 
Q 36.859375 6.390625 41.078125 11.03125 
Q 45.3125 15.671875 45.3125 23.6875 
L 45.3125 54.6875 
L 54.296875 54.6875 
L 54.296875 0 
L 45.3125 0 
L 45.3125 8.40625 
Q 42.046875 3.421875 37.71875 1 
Q 33.40625 -1.421875 27.6875 -1.421875 
Q 18.265625 -1.421875 13.375 4.4375 
Q 8.5 10.296875 8.5 21.578125 
z
M 31.109375 56 
z
" id="DejaVuSans-117"/>
     <path d="M 52 44.1875 
Q 55.375 50.25 60.0625 53.125 
Q 64.75 56 71.09375 56 
Q 79.640625 56 84.28125 50.015625 
Q 88.921875 44.046875 88.921875 33.015625 
L 88.921875 0 
L 79.890625 0 
L 79.890625 32.71875 
Q 79.890625 40.578125 77.09375 44.375 
Q 74.3125 48.1875 68.609375 48.1875 
Q 61.625 48.1875 57.5625 43.546875 
Q 53.515625 38.921875 53.515625 30.90625 
L 53.515625 0 
L 44.484375 0 
L 44.484375 32.71875 
Q 44.484375 40.625 41.703125 44.40625 
Q 38.921875 48.1875 33.109375 48.1875 
Q 26.21875 48.1875 22.15625 43.53125 
Q 18.109375 38.875 18.109375 30.90625 
L 18.109375 0 
L 9.078125 0 
L 9.078125 54.6875 
L 18.109375 54.6875 
L 18.109375 46.1875 
Q 21.1875 51.21875 25.484375 53.609375 
Q 29.78125 56 35.6875 56 
Q 41.65625 56 45.828125 52.96875 
Q 50 49.953125 52 44.1875 
z
" id="DejaVuSans-109"/>
     <path d="M 18.109375 8.203125 
L 18.109375 -20.796875 
L 9.078125 -20.796875 
L 9.078125 54.6875 
L 18.109375 54.6875 
L 18.109375 46.390625 
Q 20.953125 51.265625 25.265625 53.625 
Q 29.59375 56 35.59375 56 
Q 45.5625 56 51.78125 48.09375 
Q 58.015625 40.1875 58.015625 27.296875 
Q 58.015625 14.40625 51.78125 6.484375 
Q 45.5625 -1.421875 35.59375 -1.421875 
Q 29.59375 -1.421875 25.265625 0.953125 
Q 20.953125 3.328125 18.109375 8.203125 
z
M 48.6875 27.296875 
Q 48.6875 37.203125 44.609375 42.84375 
Q 40.53125 48.484375 33.40625 48.484375 
Q 26.265625 48.484375 22.1875 42.84375 
Q 18.109375 37.203125 18.109375 27.296875 
Q 18.109375 17.390625 22.1875 11.75 
Q 26.265625 6.109375 33.40625 6.109375 
Q 40.53125 6.109375 44.609375 11.75 
Q 48.6875 17.390625 48.6875 27.296875 
z
" id="DejaVuSans-112"/>
    </defs>
    <g transform="translate(137.207812 15.122625)scale(0.12 -0.12)">
     <use xlink:href="#DejaVuSans-80"/>
     <use x="60.255859" xlink:href="#DejaVuSans-111"/>
     <use x="121.4375" xlink:href="#DejaVuSans-115"/>
     <use x="173.537109" xlink:href="#DejaVuSans-116"/>
     <use x="212.746094" xlink:href="#DejaVuSans-101"/>
     <use x="274.269531" xlink:href="#DejaVuSans-114"/>
     <use x="315.382812" xlink:href="#DejaVuSans-105"/>
     <use x="343.166016" xlink:href="#DejaVuSans-111"/>
     <use x="404.347656" xlink:href="#DejaVuSans-114"/>
     <use x="445.460938" xlink:href="#DejaVuSans-32"/>
     <use x="477.248047" xlink:href="#DejaVuSans-97"/>
     <use x="538.527344" xlink:href="#DejaVuSans-102"/>
     <use x="573.716797" xlink:href="#DejaVuSans-116"/>
     <use x="612.925781" xlink:href="#DejaVuSans-101"/>
     <use x="674.449219" xlink:href="#DejaVuSans-114"/>
     <use x="715.5625" xlink:href="#DejaVuSans-32"/>
     <use x="747.349609" xlink:href="#DejaVuSans-117"/>
     <use x="810.728516" xlink:href="#DejaVuSans-110"/>
     <use x="874.107422" xlink:href="#DejaVuSans-105"/>
     <use x="901.890625" xlink:href="#DejaVuSans-102"/>
     <use x="937.095703" xlink:href="#DejaVuSans-111"/>
     <use x="998.277344" xlink:href="#DejaVuSans-114"/>
     <use x="1039.375" xlink:href="#DejaVuSans-109"/>
     <use x="1136.787109" xlink:href="#DejaVuSans-32"/>
     <use x="1168.574219" xlink:href="#DejaVuSans-112"/>
     <use x="1232.050781" xlink:href="#DejaVuSans-114"/>
     <use x="1273.164062" xlink:href="#DejaVuSans-105"/>
     <use x="1300.947266" xlink:href="#DejaVuSans-111"/>
     <use x="1362.128906" xlink:href="#DejaVuSans-114"/>
    </g>
    <!-- (linear weekday model) -->
    <defs>
     <path d="M 31 75.875 
Q 24.46875 64.65625 21.28125 53.65625 
Q 18.109375 42.671875 18.109375 31.390625 
Q 18.109375 20.125 21.3125 9.0625 
Q 24.515625 -2 31 -13.1875 
L 23.1875 -13.1875 
Q 15.875 -1.703125 12.234375 9.375 
Q 8.59375 20.453125 8.59375 31.390625 
Q 8.59375 42.28125 12.203125 53.3125 
Q 15.828125 64.359375 23.1875 75.875 
z
" id="DejaVuSans-40"/>
     <path d="M 9.421875 75.984375 
L 18.40625 75.984375 
L 18.40625 0 
L 9.421875 0 
z
" id="DejaVuSans-108"/>
     <path d="M 4.203125 54.6875 
L 13.1875 54.6875 
L 24.421875 12.015625 
L 35.59375 54.6875 
L 46.1875 54.6875 
L 57.421875 12.015625 
L 68.609375 54.6875 
L 77.59375 54.6875 
L 63.28125 0 
L 52.6875 0 
L 40.921875 44.828125 
L 29.109375 0 
L 18.5 0 
z
" id="DejaVuSans-119"/>
     <path d="M 8.015625 75.875 
L 15.828125 75.875 
Q 23.140625 64.359375 26.78125 53.3125 
Q 30.421875 42.28125 30.421875 31.390625 
Q 30.421875 20.453125 26.78125 9.375 
Q 23.140625 -1.703125 15.828125 -13.1875 
L 8.015625 -13.1875 
Q 14.5 -2 17.703125 9.0625 
Q 20.90625 20.125 20.90625 31.390625 
Q 20.90625 42.671875 17.703125 53.65625 
Q 14.5 64.65625 8.015625 75.875 
z
" id="DejaVuSans-41"/>
    </defs>
    <g transform="translate(150.447188 28.56)scale(0.12 -0.12)">
     <use xlink:href="#DejaVuSans-40"/>
     <use x="39.013672" xlink:href="#DejaVuSans-108"/>
     <use x="66.796875" xlink:href="#DejaVuSans-105"/>
     <use x="94.580078" xlink:href="#DejaVuSans-110"/>
     <use x="157.958984" xlink:href="#DejaVuSans-101"/>
     <use x="219.482422" xlink:href="#DejaVuSans-97"/>
     <use x="280.761719" xlink:href="#DejaVuSans-114"/>
     <use x="321.875" xlink:href="#DejaVuSans-32"/>
     <use x="353.662109" xlink:href="#DejaVuSans-119"/>
     <use x="435.449219" xlink:href="#DejaVuSans-101"/>
     <use x="496.972656" xlink:href="#DejaVuSans-101"/>
     <use x="558.496094" xlink:href="#DejaVuSans-107"/>
     <use x="616.40625" xlink:href="#DejaVuSans-100"/>
     <use x="679.882812" xlink:href="#DejaVuSans-97"/>
     <use x="741.162109" xlink:href="#DejaVuSans-121"/>
     <use x="800.341797" xlink:href="#DejaVuSans-32"/>
     <use x="832.128906" xlink:href="#DejaVuSans-109"/>
     <use x="929.541016" xlink:href="#DejaVuSans-111"/>
     <use x="990.722656" xlink:href="#DejaVuSans-100"/>
     <use x="1054.199219" xlink:href="#DejaVuSans-101"/>
     <use x="1115.722656" xlink:href="#DejaVuSans-108"/>
     <use x="1143.505859" xlink:href="#DejaVuSans-41"/>
    </g>
   </g>
   <g id="legend_1">
    <g id="patch_262">
     <path d="M 61 108.99 
L 221.226562 108.99 
Q 223.226562 108.99 223.226562 106.99 
L 223.226562 41.56 
Q 223.226562 39.56 221.226562 39.56 
L 61 39.56 
Q 59 39.56 59 41.56 
L 59 106.99 
Q 59 108.99 61 108.99 
z
" style="fill:#ffffff;opacity:0.8;stroke:#cccccc;stroke-linejoin:miter;"/>
    </g>
    <g id="line2d_53">
     <path d="M 63 54.297188 
L 83 54.297188 
" style="fill:none;stroke:#006400;stroke-linecap:square;stroke-opacity:0.4;stroke-width:3;"/>
    </g>
    <g id="line2d_54"/>
    <g id="text_16">
     <!-- Analytic solution -->
     <defs>
      <path d="M 34.1875 63.1875 
L 20.796875 26.90625 
L 47.609375 26.90625 
z
M 28.609375 72.90625 
L 39.796875 72.90625 
L 67.578125 0 
L 57.328125 0 
L 50.6875 18.703125 
L 17.828125 18.703125 
L 11.1875 0 
L 0.78125 0 
z
" id="DejaVuSans-65"/>
      <path d="M 48.78125 52.59375 
L 48.78125 44.1875 
Q 44.96875 46.296875 41.140625 47.34375 
Q 37.3125 48.390625 33.40625 48.390625 
Q 24.65625 48.390625 19.8125 42.84375 
Q 14.984375 37.3125 14.984375 27.296875 
Q 14.984375 17.28125 19.8125 11.734375 
Q 24.65625 6.203125 33.40625 6.203125 
Q 37.3125 6.203125 41.140625 7.25 
Q 44.96875 8.296875 48.78125 10.40625 
L 48.78125 2.09375 
Q 45.015625 0.34375 40.984375 -0.53125 
Q 36.96875 -1.421875 32.421875 -1.421875 
Q 20.0625 -1.421875 12.78125 6.34375 
Q 5.515625 14.109375 5.515625 27.296875 
Q 5.515625 40.671875 12.859375 48.328125 
Q 20.21875 56 33.015625 56 
Q 37.15625 56 41.109375 55.140625 
Q 45.0625 54.296875 48.78125 52.59375 
z
" id="DejaVuSans-99"/>
     </defs>
     <g transform="translate(91 51.158438)scale(0.1 -0.1)">
      <use xlink:href="#DejaVuSans-65"/>
      <use x="68.408203" xlink:href="#DejaVuSans-110"/>
      <use x="131.787109" xlink:href="#DejaVuSans-97"/>
      <use x="193.066406" xlink:href="#DejaVuSans-108"/>
      <use x="220.849609" xlink:href="#DejaVuSans-121"/>
      <use x="280.029297" xlink:href="#DejaVuSans-116"/>
      <use x="319.238281" xlink:href="#DejaVuSans-105"/>
      <use x="347.021484" xlink:href="#DejaVuSans-99"/>
      <use x="402.001953" xlink:href="#DejaVuSans-32"/>
      <use x="433.789062" xlink:href="#DejaVuSans-115"/>
      <use x="485.888672" xlink:href="#DejaVuSans-111"/>
      <use x="547.070312" xlink:href="#DejaVuSans-108"/>
      <use x="574.853516" xlink:href="#DejaVuSans-117"/>
      <use x="638.232422" xlink:href="#DejaVuSans-116"/>
      <use x="677.441406" xlink:href="#DejaVuSans-105"/>
      <use x="705.224609" xlink:href="#DejaVuSans-111"/>
      <use x="766.40625" xlink:href="#DejaVuSans-110"/>
     </g>
     <!-- after original prior -->
     <defs>
      <path d="M 45.40625 27.984375 
Q 45.40625 37.75 41.375 43.109375 
Q 37.359375 48.484375 30.078125 48.484375 
Q 22.859375 48.484375 18.828125 43.109375 
Q 14.796875 37.75 14.796875 27.984375 
Q 14.796875 18.265625 18.828125 12.890625 
Q 22.859375 7.515625 30.078125 7.515625 
Q 37.359375 7.515625 41.375 12.890625 
Q 45.40625 18.265625 45.40625 27.984375 
z
M 54.390625 6.78125 
Q 54.390625 -7.171875 48.1875 -13.984375 
Q 42 -20.796875 29.203125 -20.796875 
Q 24.46875 -20.796875 20.265625 -20.09375 
Q 16.0625 -19.390625 12.109375 -17.921875 
L 12.109375 -9.1875 
Q 16.0625 -11.328125 19.921875 -12.34375 
Q 23.78125 -13.375 27.78125 -13.375 
Q 36.625 -13.375 41.015625 -8.765625 
Q 45.40625 -4.15625 45.40625 5.171875 
L 45.40625 9.625 
Q 42.625 4.78125 38.28125 2.390625 
Q 33.9375 0 27.875 0 
Q 17.828125 0 11.671875 7.65625 
Q 5.515625 15.328125 5.515625 27.984375 
Q 5.515625 40.671875 11.671875 48.328125 
Q 17.828125 56 27.875 56 
Q 33.9375 56 38.28125 53.609375 
Q 42.625 51.21875 45.40625 46.390625 
L 45.40625 54.6875 
L 54.390625 54.6875 
z
" id="DejaVuSans-103"/>
     </defs>
     <g transform="translate(91 62.35625)scale(0.1 -0.1)">
      <use xlink:href="#DejaVuSans-97"/>
      <use x="61.279297" xlink:href="#DejaVuSans-102"/>
      <use x="96.46875" xlink:href="#DejaVuSans-116"/>
      <use x="135.677734" xlink:href="#DejaVuSans-101"/>
      <use x="197.201172" xlink:href="#DejaVuSans-114"/>
      <use x="238.314453" xlink:href="#DejaVuSans-32"/>
      <use x="270.101562" xlink:href="#DejaVuSans-111"/>
      <use x="331.283203" xlink:href="#DejaVuSans-114"/>
      <use x="372.396484" xlink:href="#DejaVuSans-105"/>
      <use x="400.179688" xlink:href="#DejaVuSans-103"/>
      <use x="463.65625" xlink:href="#DejaVuSans-105"/>
      <use x="491.439453" xlink:href="#DejaVuSans-110"/>
      <use x="554.818359" xlink:href="#DejaVuSans-97"/>
      <use x="616.097656" xlink:href="#DejaVuSans-108"/>
      <use x="643.880859" xlink:href="#DejaVuSans-32"/>
      <use x="675.667969" xlink:href="#DejaVuSans-112"/>
      <use x="739.144531" xlink:href="#DejaVuSans-114"/>
      <use x="780.257812" xlink:href="#DejaVuSans-105"/>
      <use x="808.041016" xlink:href="#DejaVuSans-111"/>
      <use x="869.222656" xlink:href="#DejaVuSans-114"/>
     </g>
    </g>
    <g id="line2d_55">
     <path d="M 63 73.534375 
L 83 73.534375 
" style="fill:none;stroke:#000000;stroke-linecap:square;stroke-width:5;"/>
    </g>
    <g id="line2d_56"/>
    <g id="text_17">
     <!-- 95% HDI: [1.049, 1.107] -->
     <defs>
      <path d="M 72.703125 32.078125 
Q 68.453125 32.078125 66.03125 28.46875 
Q 63.625 24.859375 63.625 18.40625 
Q 63.625 12.0625 66.03125 8.421875 
Q 68.453125 4.78125 72.703125 4.78125 
Q 76.859375 4.78125 79.265625 8.421875 
Q 81.6875 12.0625 81.6875 18.40625 
Q 81.6875 24.8125 79.265625 28.4375 
Q 76.859375 32.078125 72.703125 32.078125 
z
M 72.703125 38.28125 
Q 80.421875 38.28125 84.953125 32.90625 
Q 89.5 27.546875 89.5 18.40625 
Q 89.5 9.28125 84.9375 3.921875 
Q 80.375 -1.421875 72.703125 -1.421875 
Q 64.890625 -1.421875 60.34375 3.921875 
Q 55.8125 9.28125 55.8125 18.40625 
Q 55.8125 27.59375 60.375 32.9375 
Q 64.9375 38.28125 72.703125 38.28125 
z
M 22.3125 68.015625 
Q 18.109375 68.015625 15.6875 64.375 
Q 13.28125 60.75 13.28125 54.390625 
Q 13.28125 47.953125 15.671875 44.328125 
Q 18.0625 40.71875 22.3125 40.71875 
Q 26.5625 40.71875 28.96875 44.328125 
Q 31.390625 47.953125 31.390625 54.390625 
Q 31.390625 60.6875 28.953125 64.34375 
Q 26.515625 68.015625 22.3125 68.015625 
z
M 66.40625 74.21875 
L 74.21875 74.21875 
L 28.609375 -1.421875 
L 20.796875 -1.421875 
z
M 22.3125 74.21875 
Q 30.03125 74.21875 34.609375 68.875 
Q 39.203125 63.53125 39.203125 54.390625 
Q 39.203125 45.171875 34.640625 39.84375 
Q 30.078125 34.515625 22.3125 34.515625 
Q 14.546875 34.515625 10.03125 39.859375 
Q 5.515625 45.21875 5.515625 54.390625 
Q 5.515625 63.484375 10.046875 68.84375 
Q 14.59375 74.21875 22.3125 74.21875 
z
" id="DejaVuSans-37"/>
      <path d="M 9.8125 72.90625 
L 19.671875 72.90625 
L 19.671875 43.015625 
L 55.515625 43.015625 
L 55.515625 72.90625 
L 65.375 72.90625 
L 65.375 0 
L 55.515625 0 
L 55.515625 34.71875 
L 19.671875 34.71875 
L 19.671875 0 
L 9.8125 0 
z
" id="DejaVuSans-72"/>
      <path d="M 19.671875 64.796875 
L 19.671875 8.109375 
L 31.59375 8.109375 
Q 46.6875 8.109375 53.6875 14.9375 
Q 60.6875 21.78125 60.6875 36.53125 
Q 60.6875 51.171875 53.6875 57.984375 
Q 46.6875 64.796875 31.59375 64.796875 
z
M 9.8125 72.90625 
L 30.078125 72.90625 
Q 51.265625 72.90625 61.171875 64.09375 
Q 71.09375 55.28125 71.09375 36.53125 
Q 71.09375 17.671875 61.125 8.828125 
Q 51.171875 0 30.078125 0 
L 9.8125 0 
z
" id="DejaVuSans-68"/>
      <path d="M 9.8125 72.90625 
L 19.671875 72.90625 
L 19.671875 0 
L 9.8125 0 
z
" id="DejaVuSans-73"/>
      <path d="M 11.71875 12.40625 
L 22.015625 12.40625 
L 22.015625 0 
L 11.71875 0 
z
M 11.71875 51.703125 
L 22.015625 51.703125 
L 22.015625 39.3125 
L 11.71875 39.3125 
z
" id="DejaVuSans-58"/>
      <path d="M 8.59375 75.984375 
L 29.296875 75.984375 
L 29.296875 69 
L 17.578125 69 
L 17.578125 -6.203125 
L 29.296875 -6.203125 
L 29.296875 -13.1875 
L 8.59375 -13.1875 
z
" id="DejaVuSans-91"/>
      <path d="M 37.796875 64.3125 
L 12.890625 25.390625 
L 37.796875 25.390625 
z
M 35.203125 72.90625 
L 47.609375 72.90625 
L 47.609375 25.390625 
L 58.015625 25.390625 
L 58.015625 17.1875 
L 47.609375 17.1875 
L 47.609375 0 
L 37.796875 0 
L 37.796875 17.1875 
L 4.890625 17.1875 
L 4.890625 26.703125 
z
" id="DejaVuSans-52"/>
      <path d="M 11.71875 12.40625 
L 22.015625 12.40625 
L 22.015625 4 
L 14.015625 -11.625 
L 7.71875 -11.625 
L 11.71875 4 
z
" id="DejaVuSans-44"/>
      <path d="M 8.203125 72.90625 
L 55.078125 72.90625 
L 55.078125 68.703125 
L 28.609375 0 
L 18.3125 0 
L 43.21875 64.59375 
L 8.203125 64.59375 
z
" id="DejaVuSans-55"/>
      <path d="M 30.421875 75.984375 
L 30.421875 -13.1875 
L 9.71875 -13.1875 
L 9.71875 -6.203125 
L 21.390625 -6.203125 
L 21.390625 69 
L 9.71875 69 
L 9.71875 75.984375 
z
" id="DejaVuSans-93"/>
     </defs>
     <g transform="translate(91 77.034375)scale(0.1 -0.1)">
      <use xlink:href="#DejaVuSans-57"/>
      <use x="63.623047" xlink:href="#DejaVuSans-53"/>
      <use x="127.246094" xlink:href="#DejaVuSans-37"/>
      <use x="222.265625" xlink:href="#DejaVuSans-32"/>
      <use x="254.052734" xlink:href="#DejaVuSans-72"/>
      <use x="329.248047" xlink:href="#DejaVuSans-68"/>
      <use x="406.25" xlink:href="#DejaVuSans-73"/>
      <use x="435.742188" xlink:href="#DejaVuSans-58"/>
      <use x="469.433594" xlink:href="#DejaVuSans-32"/>
      <use x="501.220703" xlink:href="#DejaVuSans-91"/>
      <use x="540.234375" xlink:href="#DejaVuSans-49"/>
      <use x="603.857422" xlink:href="#DejaVuSans-46"/>
      <use x="635.644531" xlink:href="#DejaVuSans-48"/>
      <use x="699.267578" xlink:href="#DejaVuSans-52"/>
      <use x="762.890625" xlink:href="#DejaVuSans-57"/>
      <use x="826.513672" xlink:href="#DejaVuSans-44"/>
      <use x="858.300781" xlink:href="#DejaVuSans-32"/>
      <use x="890.087891" xlink:href="#DejaVuSans-49"/>
      <use x="953.710938" xlink:href="#DejaVuSans-46"/>
      <use x="985.498047" xlink:href="#DejaVuSans-49"/>
      <use x="1049.121094" xlink:href="#DejaVuSans-48"/>
      <use x="1112.744141" xlink:href="#DejaVuSans-55"/>
      <use x="1176.367188" xlink:href="#DejaVuSans-93"/>
     </g>
    </g>
    <g id="patch_263">
     <path d="M 63 98.35125 
L 83 98.35125 
L 83 91.35125 
L 63 91.35125 
z
" style="fill:#1f77b4;"/>
    </g>
    <g id="text_18">
     <!-- Histogram of MC samples -->
     <defs>
      <path d="M 64.40625 67.28125 
L 64.40625 56.890625 
Q 59.421875 61.53125 53.78125 63.8125 
Q 48.140625 66.109375 41.796875 66.109375 
Q 29.296875 66.109375 22.65625 58.46875 
Q 16.015625 50.828125 16.015625 36.375 
Q 16.015625 21.96875 22.65625 14.328125 
Q 29.296875 6.6875 41.796875 6.6875 
Q 48.140625 6.6875 53.78125 8.984375 
Q 59.421875 11.28125 64.40625 15.921875 
L 64.40625 5.609375 
Q 59.234375 2.09375 53.4375 0.328125 
Q 47.65625 -1.421875 41.21875 -1.421875 
Q 24.65625 -1.421875 15.125 8.703125 
Q 5.609375 18.84375 5.609375 36.375 
Q 5.609375 53.953125 15.125 64.078125 
Q 24.65625 74.21875 41.21875 74.21875 
Q 47.75 74.21875 53.53125 72.484375 
Q 59.328125 70.75 64.40625 67.28125 
z
" id="DejaVuSans-67"/>
     </defs>
     <g transform="translate(91 91.7125)scale(0.1 -0.1)">
      <use xlink:href="#DejaVuSans-72"/>
      <use x="75.195312" xlink:href="#DejaVuSans-105"/>
      <use x="102.978516" xlink:href="#DejaVuSans-115"/>
      <use x="155.078125" xlink:href="#DejaVuSans-116"/>
      <use x="194.287109" xlink:href="#DejaVuSans-111"/>
      <use x="255.46875" xlink:href="#DejaVuSans-103"/>
      <use x="318.945312" xlink:href="#DejaVuSans-114"/>
      <use x="360.058594" xlink:href="#DejaVuSans-97"/>
      <use x="421.337891" xlink:href="#DejaVuSans-109"/>
      <use x="518.75" xlink:href="#DejaVuSans-32"/>
      <use x="550.537109" xlink:href="#DejaVuSans-111"/>
      <use x="611.71875" xlink:href="#DejaVuSans-102"/>
      <use x="646.923828" xlink:href="#DejaVuSans-32"/>
      <use x="678.710938" xlink:href="#DejaVuSans-77"/>
      <use x="764.990234" xlink:href="#DejaVuSans-67"/>
      <use x="834.814453" xlink:href="#DejaVuSans-32"/>
      <use x="866.601562" xlink:href="#DejaVuSans-115"/>
      <use x="918.701172" xlink:href="#DejaVuSans-97"/>
      <use x="979.980469" xlink:href="#DejaVuSans-109"/>
      <use x="1077.392578" xlink:href="#DejaVuSans-112"/>
      <use x="1140.869141" xlink:href="#DejaVuSans-108"/>
      <use x="1168.652344" xlink:href="#DejaVuSans-101"/>
      <use x="1230.175781" xlink:href="#DejaVuSans-115"/>
     </g>
     <!-- after uniform prior -->
     <g transform="translate(91 102.910313)scale(0.1 -0.1)">
      <use xlink:href="#DejaVuSans-97"/>
      <use x="61.279297" xlink:href="#DejaVuSans-102"/>
      <use x="96.46875" xlink:href="#DejaVuSans-116"/>
      <use x="135.677734" xlink:href="#DejaVuSans-101"/>
      <use x="197.201172" xlink:href="#DejaVuSans-114"/>
      <use x="238.314453" xlink:href="#DejaVuSans-32"/>
      <use x="270.101562" xlink:href="#DejaVuSans-117"/>
      <use x="333.480469" xlink:href="#DejaVuSans-110"/>
      <use x="396.859375" xlink:href="#DejaVuSans-105"/>
      <use x="424.642578" xlink:href="#DejaVuSans-102"/>
      <use x="459.847656" xlink:href="#DejaVuSans-111"/>
      <use x="521.029297" xlink:href="#DejaVuSans-114"/>
      <use x="562.126953" xlink:href="#DejaVuSans-109"/>
      <use x="659.539062" xlink:href="#DejaVuSans-32"/>
      <use x="691.326172" xlink:href="#DejaVuSans-112"/>
      <use x="754.802734" xlink:href="#DejaVuSans-114"/>
      <use x="795.916016" xlink:href="#DejaVuSans-105"/>
      <use x="823.699219" xlink:href="#DejaVuSans-111"/>
      <use x="884.880859" xlink:href="#DejaVuSans-114"/>
     </g>
    </g>
   </g>
  </g>
 </g>
 <defs>
  <clipPath id="p2b5b9d5234">
   <rect height="217.44" width="334.8" x="54" y="34.56"/>
  </clipPath>
 </defs>
</svg>
